<svg width="63" height="63" fill="none" xmlns="http://www.w3.org/2000/svg"><g clip-path="url(#clip0_13_2462)" fill="#FE4646"><path d="M57.86 25.396a26.797 26.797 0 00-3.407-8.216l3.036-4.239-7.43-7.43-4.239 3.036a26.79 26.79 0 00-8.216-3.408L36.753 0H26.247l-.851 5.14a26.796 26.796 0 00-8.216 3.407L12.94 5.51l-7.43 7.43 3.036 4.24a27.193 27.193 0 00-1.594 2.937l1.674.778c.742-1.596 1.41-2.636 2.154-3.767l-2.858-3.99 5.216-5.216 3.99 2.858.53-.349a24.984 24.984 0 018.731-3.62l.62-.129.802-4.837h7.376l.801 4.837.62.128a24.983 24.983 0 018.732 3.621l.53.35 3.99-2.859 5.216 5.217-2.858 3.99.349.53a24.982 24.982 0 013.62 8.73l.129.621 4.837.801v7.376l-4.837.801-.128.62a24.98 24.98 0 01-3.621 8.732l-.35.53 2.859 3.99-5.217 5.216-3.99-2.858-.53.349a24.982 24.982 0 01-8.73 3.62l-.621.129-.801 4.837h-7.376l-.801-4.837-.62-.128a24.98 24.98 0 01-8.732-3.621l-.53-.35-3.99 2.859-5.216-5.217 2.858-3.99-.349-.53a24.985 24.985 0 01-3.62-8.73l-.129-.621-4.837-.801v-7.376l4.837-.801c.297-1.44.563-2.64 1.2-4.341l-1.729-.647a27.03 27.03 0 00-1.015 3.373L0 26.247v10.506l5.14.851a26.796 26.796 0 003.407 8.216L5.51 50.06l7.43 7.43 4.239-3.036a26.792 26.792 0 008.216 3.408L26.247 63h10.506l.851-5.14a26.797 26.797 0 008.216-3.407l4.239 3.036 7.43-7.43-3.036-4.239a26.792 26.792 0 003.408-8.216L63 36.753V26.247l-5.14-.851z"/><path d="M47.834 38.37a17.61 17.61 0 001.381-6.87c0-9.768-7.947-17.715-17.715-17.715S13.785 21.732 13.785 31.5 21.732 49.215 31.5 49.215a17.756 17.756 0 0015.425-8.998l-1.606-.91A15.907 15.907 0 0131.5 47.37c-8.75 0-15.87-7.119-15.87-15.869s7.12-15.87 15.87-15.87 15.87 7.12 15.87 15.87c0 2.135-.417 4.205-1.237 6.155l1.7.716z"/><path d="M30.943 42.557L40.946 27.54h-6.88l2.25-7.096h-7.707l-4.365 13.934h5.077l-2.898 8.179h4.52zm-4.187-10.025l3.209-10.243h3.83l-2.25 7.097H37.5L29.955 40.71h-.92l2.898-8.178h-5.177zm24.16-7.95c-1.565-4.272-4.106-7.693-7.872-10.245l1.035-1.528c4.16 2.817 6.903 6.586 8.57 11.138l-1.733.635zm-9.375-11.17a20.226 20.226 0 00-1.578-.79l.754-1.685a22.28 22.28 0 011.721.862l-.897 1.613zm-3.218-1.439a20.008 20.008 0 00-1.69-.502l.445-1.79c.62.153 1.24.338 1.847.548l-.602 1.744z"/></g><defs><clipPath id="clip0_13_2462"><path fill="#fff" d="M0 0h63v63H0z"/></clipPath></defs></svg>