<svg width="68" height="68" fill="none" xmlns="http://www.w3.org/2000/svg"><g clip-path="url(#clip0_13_2482)" fill="#FE4646"><path d="M55.149 45.382c-1.174 0-2.13.956-2.13 2.13s.956 2.13 2.13 2.13 2.13-.956 2.13-2.13-.956-2.13-2.13-2.13zm-36.423 0c-1.175 0-2.13.956-2.13 2.13s.955 2.13 2.13 2.13c1.174 0 2.13-.956 2.13-2.13s-.956-2.13-2.13-2.13zm-11.75 0c-1.174 0-2.13.956-2.13 2.13s.956 2.13 2.13 2.13 2.13-.956 2.13-2.13-.956-2.13-2.13-2.13z"/><path d="M66.463 34.148l-2.135-1.423-2.944-10.795a3.459 3.459 0 00-3.33-2.543h-8.78c-.608 0-1.101.493-1.101 1.101v20.048H36.276V37.98c5.275-.552 9.4-5.025 9.4-10.443 0-5.79-4.71-10.501-10.501-10.501h-.073v-1.249a2.279 2.279 0 00-2.277-2.276h-4.7a2.279 2.279 0 00-2.276 2.276v1.249H10.5C4.711 17.037 0 21.747 0 27.537c0 5.01 3.526 9.208 8.225 10.25v2.749H1.102a1.102 1.102 0 000 2.203h.793A6.95 6.95 0 000 47.512a6.984 6.984 0 006.976 6.976 6.975 6.975 0 005.875-3.22 6.975 6.975 0 005.875 3.22c3.472 0 6.358-2.55 6.888-5.874h2.766a3.457 3.457 0 003.27 2.35h10.575a3.457 3.457 0 003.27-2.35h2.766c.53 3.325 3.416 5.874 6.888 5.874s6.359-2.55 6.888-5.874h3.687A2.279 2.279 0 0068 46.337V37.02c0-1.157-.575-2.23-1.537-2.872zm-4.531-1.837h-5.608a1.25 1.25 0 01-1.248-1.248V26.29h5.213l1.642 6.021zM50.376 21.59h7.678a1.25 1.25 0 011.204.92l.43 1.576h-5.714c-.608 0-1.101.494-1.101 1.102v5.875a3.455 3.455 0 003.451 3.451h6.716l2.2 1.467c.347.23.553.615.556 1.03H64.55a1.102 1.102 0 000 2.203h1.248v1.322H50.376V21.59zm-2.203 24.82h-2.678a3.457 3.457 0 00-3.27-2.35H31.65c-1.518 0-2.81.986-3.27 2.35h-2.766a6.957 6.957 0 00-1.808-3.671h24.367v3.671zm-30.696-5.874v-2.497h16.596v2.497H17.477zm25.996-12.998c0 4.575-3.722 8.298-8.298 8.298H17.477V19.313c0-.025-.002-.049-.003-.073h17.7c4.577 0 8.299 3.722 8.299 8.298zm-33.045 1.101h4.846v2.497h-4.846V28.64zm4.846-2.203h-4.846V23.94h4.846v2.496zm-4.846 6.903h4.846v2.497h-4.773l-.073-.002v-2.495zm17.624-17.55c0-.041.033-.074.073-.074h4.7c.04 0 .073.033.073.073v1.249h-4.846v-1.249zm-12.774 3.45c-.002.025-.004.05-.004.074v2.424h-4.846v-2.424c0-.024-.002-.047-.004-.071l.077-.002h4.777zm-13.075 8.3c0-3.786 2.55-6.986 6.022-7.978v15.956c-3.472-.992-6.022-4.192-6.022-7.978zm8.225 10.5l.073.001h4.773v2.497h-4.846v-2.499zm3.217 4.7a7.07 7.07 0 00-.794 1.019 7.023 7.023 0 00-.794-1.018h1.588zm-6.669 9.547a4.779 4.779 0 01-4.773-4.773 4.779 4.779 0 014.773-4.773 4.779 4.779 0 014.773 4.773 4.779 4.779 0 01-4.773 4.773zm11.75 0a4.779 4.779 0 01-4.773-4.773 4.779 4.779 0 014.773-4.773 4.779 4.779 0 014.773 4.773 4.779 4.779 0 01-4.773 4.773zm23.499-3.525H31.65a1.25 1.25 0 01-1.248-1.248c0-.688.56-1.248 1.248-1.248h10.575c.688 0 1.248.56 1.248 1.248a1.25 1.25 0 01-1.248 1.248zm12.924 3.525a4.779 4.779 0 01-4.773-4.773 4.779 4.779 0 014.773-4.773 4.779 4.779 0 014.773 4.773 4.779 4.779 0 01-4.773 4.773zm10.575-5.875h-3.687a6.957 6.957 0 00-1.807-3.671h5.567v3.598c0 .04-.033.073-.073.073z"/></g><defs><clipPath id="clip0_13_2482"><path fill="#fff" d="M0 0h68v68H0z"/></clipPath></defs></svg>