<svg width="50" height="50" fill="none" xmlns="http://www.w3.org/2000/svg"><g clip-path="url(#clip0_13_2163)" fill="#FE4646"><path d="M28.333 0H11.667A4.171 4.171 0 007.5 4.167v30a4.171 4.171 0 004.167 4.166h15v-1.666h-15a2.503 2.503 0 01-2.5-2.5v-30c0-1.379 1.121-2.5 2.5-2.5h16.666c1.379 0 2.5 1.121 2.5 2.5v24.166H32.5V4.167A4.171 4.171 0 0028.333 0z"/><path d="M40.492 22.197L32.319 11.98l-1.303 1.042 8.175 10.216a7.521 7.521 0 011.643 4.687v20.408H28.642c-4.305 0-7.809-3.502-7.809-7.808V37.5h-1.666v3.025c0 5.224 4.25 9.475 9.475 9.475h13.025c.46 0 .833-.373.833-.833V27.926a9.201 9.201 0 00-2.008-5.73z"/><path d="M21.663 19.652c.585.017 1.13.26 1.53.685l11.2 11.9 1.214-1.142-11.201-11.9a3.833 3.833 0 00-2.695-1.208 3.784 3.784 0 00-2.75 1.043c-.01.01-.076.072-.084.082a3.847 3.847 0 00-.221 5.218l7.177 8.475v2.578c0 4.605 2.895 8.783 7.208 10.398l.585-1.561a9.476 9.476 0 01-6.126-8.837V32.5a.837.837 0 00-.197-.54l-7.373-8.705c-.737-.878-.683-2.154.167-3.005.425-.402.98-.6 1.566-.598z"/><path d="M27.5 1.667h-1.667V22.5H27.5V1.667zM23.333 27.5h-1.666v10h1.666v-10zm0-26.667h-1.666v18.334h1.666V.833zm-10 3.334h-1.666V15h1.666V4.167zm4.167 0h-1.667v6.666H17.5V4.167zm0 23.333h-5a.833.833 0 00-.833.833v5c0 .461.373.834.833.834h5c.46 0 .833-.373.833-.834v-5a.833.833 0 00-.833-.833zm-.833 5h-3.334v-3.333h3.334V32.5z"/></g><defs><clipPath id="clip0_13_2163"><path fill="#fff" d="M0 0h50v50H0z"/></clipPath></defs></svg>