<svg width="56" height="56" fill="none" xmlns="http://www.w3.org/2000/svg"><path d="M28 1.75A26.255 26.255 0 005.45 41.444a.874.874 0 00-.053 1.041l.99 1.487L2.176 46.5a.875.875 0 00.278 1.608l3.632.726-.243 4.494a.875.875 0 001.324.797l6.683-4.014a26.263 26.263 0 0028.302 0l6.683 4.014a.875.875 0 001.324-.797l-.243-4.494 3.632-.726a.875.875 0 00.279-1.608l-4.214-2.528.991-1.487a.874.874 0 00-.053-1.041A26.253 26.253 0 0028 1.75zM9.884 41.166a41.865 41.865 0 0136.232 0l2.472 1.187-2.525 3.787a43.61 43.61 0 00-36.127 0l-2.524-3.787 2.472-1.187zM28 35.294c-4.943.007-9.85.848-14.512 2.49A17.361 17.361 0 0110.5 28c0-9.65 7.85-17.5 17.5-17.5S45.5 18.35 45.5 28a17.37 17.37 0 01-2.989 9.783A43.896 43.896 0 0028 35.293zm6.056 9.126a17.517 17.517 0 01-12.113 0 41.299 41.299 0 0112.113 0zM7.679 51.776l.194-3.604a.875.875 0 00-.702-.905l-2.155-.431L7.36 45.43l1.537 2.305A.875.875 0 0010 48.04a40.28 40.28 0 011.778-.794l.984 1.476-5.084 3.054zm7.117-3.136a.884.884 0 00-.068-.125l-1.284-1.925c1.788-.66 3.618-1.2 5.478-1.613a19.264 19.264 0 0018.156 0 42.2 42.2 0 015.477 1.612l-1.283 1.925a.872.872 0 00-.068.126 24.513 24.513 0 01-26.408 0zm36.188-1.804l-2.156.43a.875.875 0 00-.702.906l.195 3.604-5.084-3.054.984-1.476c.599.25 1.192.516 1.778.794a.874.874 0 001.104-.305l1.538-2.305 2.343 1.406zm-1.976-6.223l-2.135-1.025a42.695 42.695 0 00-2.681-1.175A19.107 19.107 0 0047.25 28c0-10.614-8.636-19.25-19.25-19.25C17.385 8.75 8.75 17.386 8.75 28a19.097 19.097 0 003.057 10.414c-.907.361-1.8.753-2.68 1.175l-2.134 1.024a24.5 24.5 0 1142.015 0z" fill="#FE4646"/><path d="M36.313 21H31.5a.876.876 0 01-.875-.875V17.5A2.628 2.628 0 0028 14.875h-1.75a.875.875 0 00-.875.875v1.929a4.997 4.997 0 01-1.474 3.557l-.639.639h-4.887a.875.875 0 00-.875.875v9.625a.875.875 0 00.875.875h15.313a2.187 2.187 0 002.045-2.965 2.186 2.186 0 00.875-2.625 2.186 2.186 0 00.875-2.625A2.188 2.188 0 0036.313 21zM19.25 23.625h3.5V31.5h-3.5v-7.875zm17.063 0h-.876a.875.875 0 100 1.75.438.438 0 010 .875h-.874a.875.875 0 100 1.75.438.438 0 010 .875h-.876a.875.875 0 100 1.75.438.438 0 010 .875H24.5v-8.388l.639-.638a6.737 6.737 0 001.986-4.795v-1.054H28a.876.876 0 01.875.875v2.625A2.628 2.628 0 0031.5 22.75h4.813a.438.438 0 010 .875zM26.185 39.397l.81.588-.31.952a.328.328 0 00.505.366l.81-.588.81.588a.328.328 0 00.504-.366l-.31-.952.81-.588a.328.328 0 00-.193-.594h-1l-.31-.951a.33.33 0 00-.504-.164.328.328 0 00-.12.164l-.309.951h-1a.328.328 0 00-.193.594zm-5.049.633l.81.587-.31.952a.328.328 0 00.505.367l.81-.588.809.588a.328.328 0 00.505-.367l-.31-.952.81-.588a.328.328 0 00-.193-.593h-1l-.31-.952a.328.328 0 00-.624 0l-.309.952h-1a.329.329 0 00-.193.593zm10.099 0l.81.587-.31.952a.328.328 0 00.505.367l.81-.588.809.588a.328.328 0 00.505-.367l-.31-.952.81-.588a.328.328 0 00-.193-.593h-1l-.31-.952a.328.328 0 00-.624 0l-.309.952h-1a.329.329 0 00-.193.593z" fill="#FE4646"/></svg>