<svg width="69" height="69" fill="none" xmlns="http://www.w3.org/2000/svg"><path d="M34.5 8.388c-14.396 0-26.107 11.665-26.107 26.002 0 14.336 11.711 26.01 26.107 26.01 14.396 0 26.107-11.666 26.107-26.004 0-14.338-11.711-26.008-26.107-26.008zm0 49.848c-13.207 0-23.95-10.697-23.95-23.846 0-13.15 10.743-23.846 23.95-23.846 13.207 0 23.95 10.698 23.95 23.845 0 13.148-10.743 23.847-23.95 23.847zm17.193-13.961a1.078 1.078 0 01-1.469.392l-2.695-1.551a1.079 1.079 0 011.078-1.87l1.74.999a17.562 17.562 0 001.807-6.776h-1.997a1.078 1.078 0 110-2.156h1.997a17.433 17.433 0 00-1.827-6.782l-1.735.998a1.079 1.079 0 11-1.078-1.87l1.725-.99a17.777 17.777 0 00-4.986-4.964l-.993 1.723a1.078 1.078 0 01-1.865-1.078l.995-1.719a17.615 17.615 0 00-6.812-1.822v1.99a1.078 1.078 0 01-2.156 0v-1.99c-2.37.141-4.688.76-6.814 1.82l.996 1.72a1.078 1.078 0 11-1.864 1.079l-.998-1.723a17.79 17.79 0 00-4.987 4.963l1.725.991a1.079 1.079 0 11-1.078 1.87l-1.736-.998a17.434 17.434 0 00-1.82 6.78h2.002a1.078 1.078 0 010 2.157h-2.002c.145 2.36.765 4.667 1.823 6.782l1.739-.998a1.078 1.078 0 111.078 1.869l-2.696 1.551a1.078 1.078 0 01-1.467-.392 19.71 19.71 0 01-2.657-9.83v-.104a19.598 19.598 0 012.584-9.74 1.019 1.019 0 01.123-.207 19.958 19.958 0 017.092-7.064 1.015 1.015 0 01.21-.121 19.792 19.792 0 019.771-2.595h.097c3.427.005 6.794.899 9.772 2.595a1.003 1.003 0 01.209.121 19.946 19.946 0 017.093 7.064.974.974 0 01.122.208 19.596 19.596 0 012.605 9.734v.104a19.71 19.71 0 01-2.655 9.827l.004.003zm-12.982-9.888a4.21 4.21 0 00-5.312-4.043l-3.714-6.407a1.077 1.077 0 10-1.865 1.078l3.715 6.406a4.19 4.19 0 002.965 7.161c.37 0 .74-.05 1.098-.145l.712 1.229a1.078 1.078 0 001.865-1.079l-.71-1.227a4.195 4.195 0 001.246-2.973zm-6.257 0a2.042 2.042 0 011.023-1.763 2.035 2.035 0 11-1.024 1.763h.001zm8.303 11.388H28.243a1.078 1.078 0 00-1.078 1.078v6.23a1.078 1.078 0 001.078 1.078h12.514a1.078 1.078 0 001.078-1.078v-6.23a1.078 1.078 0 00-1.078-1.078zm-1.078 6.23H29.321V47.93h10.358v4.074z" fill="#FE4646"/></svg>