<svg width="17" height="17" viewBox="0 0 17 17" fill="none" xmlns="http://www.w3.org/2000/svg">
<g clip-path="url(#clip0_13_2878)">
<path fill-rule="evenodd" clip-rule="evenodd" d="M8.49984 0.885498C4.29446 0.885498 0.885254 4.29471 0.885254 8.50008C0.885254 12.7055 4.29446 16.1147 8.49984 16.1147C12.7052 16.1147 16.1144 12.7055 16.1144 8.50008C16.1144 4.29471 12.7052 0.885498 8.49984 0.885498ZM9.03109 4.25008C9.03109 4.10919 8.97512 3.97406 8.87549 3.87443C8.77586 3.7748 8.64073 3.71883 8.49984 3.71883C8.35894 3.71883 8.22382 3.7748 8.12419 3.87443C8.02456 3.97406 7.96859 4.10919 7.96859 4.25008V8.50008C7.96859 8.79333 8.20659 9.03133 8.49984 9.03133H12.7498C12.8907 9.03133 13.0259 8.97536 13.1255 8.87573C13.2251 8.7761 13.2811 8.64098 13.2811 8.50008C13.2811 8.35919 13.2251 8.22406 13.1255 8.12443C13.0259 8.0248 12.8907 7.96883 12.7498 7.96883H9.03109V4.25008Z" fill="white"/>
</g>
<defs>
<clipPath id="clip0_13_2878">
<rect width="17" height="17" fill="white"/>
</clipPath>
</defs>
</svg>
