<svg width="13" height="16" viewBox="0 0 13 16" fill="none" xmlns="http://www.w3.org/2000/svg">
<path d="M6.5 0.708252C8.19075 0.708252 9.81226 1.3799 11.0078 2.57545C12.2033 3.77099 12.875 5.3925 12.875 7.08325C12.875 9.7225 10.8633 12.4878 6.925 15.4416C6.80239 15.5335 6.65326 15.5833 6.5 15.5833C6.34674 15.5833 6.19761 15.5335 6.075 15.4416C2.13667 12.4878 0.125 9.7225 0.125 7.08325C0.125 5.3925 0.79665 3.77099 1.99219 2.57545C3.18774 1.3799 4.80924 0.708252 6.5 0.708252ZM6.5 4.95825C5.93641 4.95825 5.39591 5.18214 4.9974 5.58065C4.59888 5.97916 4.375 6.51967 4.375 7.08325C4.375 7.64684 4.59888 8.18734 4.9974 8.58585C5.39591 8.98437 5.93641 9.20825 6.5 9.20825C7.06358 9.20825 7.60409 8.98437 8.0026 8.58585C8.40112 8.18734 8.625 7.64684 8.625 7.08325C8.625 6.51967 8.40112 5.97916 8.0026 5.58065C7.60409 5.18214 7.06358 4.95825 6.5 4.95825Z" fill="white"/>
</svg>
