<svg width="13" height="13" viewBox="0 0 13 13" fill="none" xmlns="http://www.w3.org/2000/svg">
<path d="M8.52958 9.06877L9.57958 8.01877C9.721 7.8791 9.89993 7.78349 10.0946 7.74355C10.2894 7.70361 10.4915 7.72106 10.6765 7.79377L11.9561 8.30471C12.1431 8.38059 12.3034 8.51011 12.4168 8.67694C12.5303 8.84378 12.5918 9.04046 12.5936 9.24221V11.586C12.5926 11.7232 12.5637 11.8588 12.5088 11.9846C12.454 12.1104 12.3742 12.2238 12.2743 12.3179C12.1745 12.4121 12.0566 12.4851 11.9278 12.5325C11.799 12.5799 11.662 12.6007 11.5249 12.5938C2.55771 12.036 0.748332 4.44221 0.406145 1.53596C0.39026 1.39324 0.404774 1.24878 0.44873 1.11207C0.492686 0.975365 0.56509 0.849516 0.661176 0.742802C0.757263 0.636088 0.874856 0.550928 1.00622 0.492924C1.13758 0.43492 1.27974 0.405388 1.42333 0.406269H3.68739C3.88943 0.406867 4.08667 0.467895 4.25374 0.581502C4.42081 0.695109 4.55007 0.8561 4.62489 1.04377L5.13583 2.32346C5.21095 2.50771 5.23012 2.71001 5.19093 2.90509C5.15175 3.10017 5.05596 3.27938 4.91552 3.42033L3.86552 4.47033C3.86552 4.47033 4.47021 8.56252 8.52958 9.06877Z" fill="white"/>
</svg>
