<svg width="70" height="70" fill="none" xmlns="http://www.w3.org/2000/svg"><path d="M58.756 12.053h-27.42c-4.09 0-7.416 2.734-7.416 6.092v2.614H10.642c-3.762 0-6.814 2.516-6.814 5.611v17.303c0 3.096 3.052 5.611 6.814 5.611h2.647l8.98 8.367c.2.192.467.297.744.296.15.003.3-.027.437-.088a1.106 1.106 0 00.656-1.006v-7.569h11.277c3.762 0 6.814-2.515 6.814-5.61v-.252h1.75v8.487a1.095 1.095 0 00.667 1.007 1.136 1.136 0 001.181-.197l9.986-9.297h2.975c4.09 0 7.416-2.734 7.416-6.103V18.145c0-3.357-3.325-6.092-7.416-6.092zM40.01 43.673c0 1.86-2.121 3.424-4.626 3.424h-12.37a1.094 1.094 0 00-1.094 1.094v6.146l-7.46-6.945a1.093 1.093 0 00-.743-.295h-3.074c-2.548 0-4.626-1.531-4.626-3.424V26.37c0-1.881 2.078-3.423 4.626-3.423H23.92v14.372c0 3.368 3.325 6.103 7.416 6.103h8.673v.251zm23.975-6.354c0 2.154-2.351 3.915-5.228 3.915h-3.412c-.275 0-.54.101-.744.285l-8.466 7.886v-7.077a1.085 1.085 0 00-1.093-1.094H31.336c-2.877 0-5.228-1.76-5.228-3.915V18.145c0-2.154 2.351-3.904 5.228-3.904h27.42c2.877 0 5.228 1.75 5.228 3.904V37.32z" fill="#FE4646"/><path d="M34.027 23.45a4.095 4.095 0 10.01 8.19 4.095 4.095 0 00-.01-8.19zm0 6.005a1.908 1.908 0 11.01-3.816 1.908 1.908 0 01-.01 3.816zM45.04 23.45a4.096 4.096 0 10.011 8.191 4.096 4.096 0 00-.01-8.191zm0 6.005a1.907 1.907 0 01-1.34-3.262 1.91 1.91 0 111.34 3.262zm11.026-6.005a4.096 4.096 0 10.01 8.191 4.096 4.096 0 00-.01-8.191zm0 6.005a1.907 1.907 0 01-1.34-3.262 1.91 1.91 0 111.34 3.262z" fill="#FE4646"/></svg>