<svg width="60" height="60" fill="none" xmlns="http://www.w3.org/2000/svg"><path d="M30 10.02a.94.94 0 00-.94.94v10.084h-5.072a.94.94 0 100 1.879h5.073V34.07H16.922a39.93 39.93 0 01.286-3.956.94.94 0 00-1.864-.23 41.694 41.694 0 00-.3 4.186H6.908a22.986 22.986 0 013.832-11.84.94.94 0 00-1.565-1.04A24.878 24.878 0 005.01 35.01C5.01 48.79 16.22 60 30 60c13.78 0 24.99-11.21 24.99-24.99 0-13.779-11.21-24.99-24.99-24.99zM6.91 35.95h8.133c.086 3.96.717 7.76 1.832 11.148h-6.564a22.956 22.956 0 01-3.4-11.148zm4.69 13.027h5.961a26.85 26.85 0 001.707 3.513c1.053 1.804 2.243 3.306 3.533 4.482a23.2 23.2 0 01-11.2-7.995zm17.46 9.084c-3.052-.39-5.923-2.669-8.169-6.518a24.503 24.503 0 01-1.295-2.566h9.465v9.084zm0-10.963h-10.2c-1.178-3.342-1.846-7.154-1.937-11.148H29.06v11.148zm24.03-13.027h-8.133c-.086-3.96-.717-7.76-1.832-11.148h6.565a22.958 22.958 0 013.4 11.148zM48.4 21.044h-5.961a26.85 26.85 0 00-1.707-3.513c-1.053-1.805-2.243-3.307-3.533-4.482A23.2 23.2 0 0148.4 21.044zM30.94 11.96c3.052.389 5.923 2.669 8.169 6.518.471.808.903 1.665 1.295 2.566h-9.465V11.96zm0 10.963h10.2c1.178 3.342 1.846 7.153 1.937 11.148H30.94V22.923zm18.75 24.175h-1.653a.94.94 0 100 1.879h.363a23.198 23.198 0 01-11.222 8.002c1.033-.936 2.002-2.077 2.885-3.413a.94.94 0 10-1.567-1.036c-2.141 3.24-4.794 5.17-7.557 5.53v-9.083h5.074a.94.94 0 000-1.879h-5.074V35.95h12.14a38.998 38.998 0 01-.58 5.91.94.94 0 101.849.33 40.96 40.96 0 00.61-6.24h8.132a22.955 22.955 0 01-3.4 11.148z" fill="#FE4646"/><path d="M16.973 0c-5.491 0-9.958 4.467-9.958 9.958 0 3.735 2.423 6.714 4.766 9.596 1.713 2.107 3.484 4.285 4.3 6.735a.94.94 0 001.783 0c.816-2.45 2.588-4.628 4.3-6.735 2.344-2.881 4.767-5.861 4.767-9.596 0-5.49-4.467-9.958-9.958-9.958zm3.734 18.369c-1.35 1.659-2.732 3.36-3.734 5.26-1.002-1.9-2.385-3.601-3.734-5.26-2.235-2.748-4.346-5.344-4.346-8.41 0-4.456 3.625-8.08 8.08-8.08s8.08 3.624 8.08 8.08c0 3.066-2.111 5.662-4.346 8.41zm21.318 26.725a2.947 2.947 0 00-2.944 2.944 2.947 2.947 0 002.944 2.943 2.947 2.947 0 002.944-2.943 2.947 2.947 0 00-2.944-2.944zm0 4.008a1.066 1.066 0 010-2.13 1.066 1.066 0 010 2.13z" fill="#FE4646"/></svg>