<svg width="56" height="60" fill="none" xmlns="http://www.w3.org/2000/svg"><path d="M52.947 49.281V28.737a24.887 24.887 0 00-6.48-16.774A24.886 24.886 0 0031.473 4.03V2.24A2.242 2.242 0 0029.234 0h-2.468a2.242 2.242 0 00-2.24 2.24v1.79A24.89 24.89 0 009.51 11.99a24.89 24.89 0 00-6.457 16.748v25.597a2.846 2.846 0 00-2.527 2.824A2.845 2.845 0 003.37 60h6.315a2.845 2.845 0 002.843-2.842A2.846 2.846 0 0010 54.334v-8.342c4.544 4.738 10.933 7.692 18 7.692a24.85 24.85 0 0018-7.674v3.271a2.846 2.846 0 00-2.526 2.824c0 1.028.548 1.93 1.367 2.43l1.187 4.748a.948.948 0 00.92.717H52a.947.947 0 00.92-.718l1.186-4.748a2.844 2.844 0 001.368-2.429 2.846 2.846 0 00-2.527-2.824zM31.474 5.944C42.712 7.63 51.053 17.238 51.053 28.737v20.526h-3.158V28.737c0-4.85-1.766-9.523-4.971-13.157a19.882 19.882 0 00-11.45-6.435V5.944zM26.42 2.24c0-.19.155-.345.345-.345h2.468c.19 0 .345.154.345.345v15.1c0 .19-.155.344-.345.344h-2.468a.345.345 0 01-.345-.345V2.24zm.345 17.339h2.468a2.242 2.242 0 002.24-2.24V16.26a12.94 12.94 0 019.473 12.477c0 7.14-5.808 12.947-12.947 12.947-7.14 0-12.947-5.808-12.947-12.947a12.94 12.94 0 019.473-12.477v1.08a2.242 2.242 0 002.24 2.239zM4.947 38.27a24.95 24.95 0 003.166 5.51.959.959 0 00-.008.115v10.42H4.947V38.27zm5.685 18.888a.948.948 0 01-.948.947H3.37a.948.948 0 010-1.895h6.315c.523 0 .948.425.948.948zm35.242-13.862A22.979 22.979 0 0128 51.79c-12.711 0-23.052-10.341-23.052-23.052 0-11.487 8.345-21.105 19.578-22.793v3.201a19.863 19.863 0 00-10.18 5.122.955.955 0 001.309 1.388 17.895 17.895 0 018.872-4.582v3.231c-6.819 1.631-11.632 7.87-11.358 15.013.303 7.896 6.832 14.21 14.733 14.261 8.229.054 14.94-6.625 14.94-14.841 0-6.9-4.735-12.846-11.368-14.433v-3.231C39.828 12.707 46 20.116 46 28.737c0 9.925-8.075 18-18 18s-18-8.075-18-18a17.93 17.93 0 013.31-10.378.95.95 0 00-.107-1.22v-.001a.954.954 0 00-1.452.12 19.873 19.873 0 00-3.646 11.479C8.105 39.707 17.03 48.63 28 48.63c7.943 0 14.813-4.68 18-11.427V43.4l-.126-.103zm5.386 14.81h-3.573l-.79-3.159h5.153l-.79 3.158zm1.372-5.053h-6.316a.948.948 0 010-1.895h6.316a.948.948 0 010 1.895z" fill="#FE4646"/></svg>