<svg width="68" height="68" viewBox="0 0 68 68" fill="none" xmlns="http://www.w3.org/2000/svg">
<g clip-path="url(#clip0_13_2345)">
<path d="M55.149 45.3823C53.9748 45.3823 53.0194 46.3377 53.0194 47.5119C53.0194 48.6861 53.9748 49.6415 55.149 49.6415C56.3232 49.6415 57.2786 48.6861 57.2786 47.5119C57.2786 46.3377 56.3232 45.3823 55.149 45.3823Z" fill="#FE4646"/>
<path d="M18.7257 45.3823C17.5515 45.3823 16.5961 46.3377 16.5961 47.5119C16.5961 48.6861 17.5515 49.6415 18.7257 49.6415C19.8999 49.6415 20.8553 48.6861 20.8553 47.5119C20.8553 46.3377 19.8999 45.3823 18.7257 45.3823Z" fill="#FE4646"/>
<path d="M6.97627 45.3823C5.80206 45.3823 4.84668 46.3377 4.84668 47.5119C4.84668 48.6861 5.80206 49.6415 6.97627 49.6415C8.15048 49.6415 9.10586 48.6861 9.10586 47.5119C9.10586 46.3377 8.15048 45.3823 6.97627 45.3823Z" fill="#FE4646"/>
<path d="M66.463 34.1484L64.3277 32.7249L61.3837 21.9301C60.9753 20.4325 59.6062 19.3866 58.0539 19.3866H49.2743C48.666 19.3866 48.1728 19.8798 48.1728 20.4881V40.5357H36.2765V37.9809C41.5509 37.4285 45.676 32.9562 45.676 27.5378C45.676 21.7475 40.9652 17.0367 35.1749 17.0367H35.1015V15.7884C35.1015 14.5331 34.0803 13.5119 32.8251 13.5119H28.1253C26.87 13.5119 25.8488 14.5331 25.8488 15.7884V17.0367H10.5011C4.7108 17.0367 0 21.7475 0 27.5378C0 32.5463 3.52557 36.7444 8.22462 37.7875V40.5357H1.10151C0.493184 40.5357 0 41.0288 0 41.6372C0 42.2455 0.493184 42.7387 1.10151 42.7387H1.89548C0.721417 43.9876 0 45.6666 0 47.5119C0 51.3585 3.12962 54.4881 6.97624 54.4881C9.44098 54.4881 11.6096 53.2022 12.851 51.267C14.0923 53.2022 16.261 54.4881 18.7257 54.4881C22.1975 54.4881 25.0844 51.9385 25.6141 48.6134H28.3799C28.8408 49.9778 30.1321 50.9633 31.6501 50.9633H42.2246C43.7427 50.9633 45.0339 49.9778 45.4948 48.6134H48.2606C48.7904 51.9385 51.6772 54.4881 55.149 54.4881C58.6208 54.4881 61.5077 51.9385 62.0374 48.6134H65.7235C66.9788 48.6134 68 47.5922 68 46.337V37.0201C68 35.8635 67.4254 34.7899 66.463 34.1484ZM61.9315 32.311H56.324C55.6356 32.311 55.0756 31.751 55.0756 31.0627V26.2894H60.2893L61.9315 32.311ZM50.3758 21.5897H58.0539C58.6153 21.5897 59.1105 21.968 59.2583 22.5095L59.6884 24.0864H53.9741C53.3658 24.0864 52.8726 24.5796 52.8726 25.1879V31.0627C52.8726 32.9658 54.4209 34.5141 56.324 34.5141H63.0401L65.2409 35.9813C65.5865 36.2117 65.7933 36.5961 65.7964 37.0108H64.5486C63.9403 37.0108 63.4471 37.504 63.4471 38.1123C63.4471 38.7207 63.9403 39.2138 64.5486 39.2138H65.797V40.5357H50.3758V21.5897ZM48.1728 46.4104H45.4948C45.0339 45.046 43.7427 44.0605 42.2246 44.0605H31.6501C30.1321 44.0605 28.8408 45.046 28.3799 46.4104H25.6141C25.3897 45.0021 24.742 43.7339 23.8063 42.7387H48.1728V46.4104ZM17.4773 40.5357V38.0389H34.0734V40.5357H17.4773ZM43.473 27.5378C43.473 32.1134 39.7505 35.8359 35.1749 35.8359H17.4773V19.3132C17.4773 19.2884 17.4753 19.2641 17.4736 19.2398H35.1749C39.7505 19.2398 43.473 22.9623 43.473 27.5378ZM10.4276 28.6393H15.2743V31.1361H10.4276V28.6393ZM15.2743 26.4363H10.4276V23.9395H15.2743V26.4363ZM10.4276 33.3391H15.2743V35.8359H10.5011C10.4764 35.8359 10.4522 35.8343 10.4276 35.834V33.3391ZM28.0518 15.7884C28.0518 15.7478 28.0847 15.7149 28.1253 15.7149H32.8251C32.8656 15.7149 32.8985 15.7478 32.8985 15.7884V17.0367H28.0518V15.7884ZM15.278 19.2398C15.2764 19.2641 15.2743 19.2884 15.2743 19.3132V21.7365H10.4276V19.3132C10.4276 19.2891 10.4256 19.2655 10.424 19.2417C10.4498 19.2415 10.4752 19.2398 10.5011 19.2398H15.278ZM2.20302 27.5378C2.20302 23.7517 4.7528 20.552 8.22462 19.5598V35.5157C4.7528 34.5236 2.20302 31.3239 2.20302 27.5378ZM10.4276 38.037C10.4522 38.0371 10.4764 38.0389 10.5011 38.0389H15.2743V40.5357H10.4276V38.037ZM13.6449 42.7387C13.3502 43.0522 13.0843 43.393 12.851 43.7568C12.6176 43.393 12.3518 43.0522 12.057 42.7387H13.6449ZM6.97624 52.2851C4.34436 52.2851 2.20302 50.1438 2.20302 47.5119C2.20302 44.88 4.34436 42.7387 6.97624 42.7387C9.60812 42.7387 11.7495 44.88 11.7495 47.5119C11.7495 50.1438 9.60812 52.2851 6.97624 52.2851ZM18.7257 52.2851C16.0938 52.2851 13.9525 50.1438 13.9525 47.5119C13.9525 44.88 16.0938 42.7387 18.7257 42.7387C21.3576 42.7387 23.4989 44.88 23.4989 47.5119C23.4989 50.1438 21.3576 52.2851 18.7257 52.2851ZM42.2246 48.7603H31.6501C30.9617 48.7603 30.4017 48.2003 30.4017 47.5119C30.4017 46.8235 30.9617 46.2635 31.6501 46.2635H42.2246C42.913 46.2635 43.473 46.8235 43.473 47.5119C43.473 48.2003 42.913 48.7603 42.2246 48.7603ZM55.149 52.2851C52.5171 52.2851 50.3758 50.1438 50.3758 47.5119C50.3758 44.88 52.5171 42.7387 55.149 42.7387C57.7809 42.7387 59.9222 44.88 59.9222 47.5119C59.9222 50.1438 57.7809 52.2851 55.149 52.2851ZM65.7235 46.4104H62.0374C61.813 45.0021 61.1653 43.7339 60.2296 42.7387H65.797V46.337C65.797 46.3775 65.7641 46.4104 65.7235 46.4104Z" fill="#FE4646"/>
</g>
<defs>
<clipPath id="clip0_13_2345">
<rect width="68" height="68" fill="white"/>
</clipPath>
</defs>
</svg>
