<svg width="64" height="64" viewBox="0 0 64 64" fill="none" xmlns="http://www.w3.org/2000/svg">
<path d="M43.5069 15.4409C43.2813 15.2085 42.9571 15.104 42.6338 15.1489L30.9561 16.979C30.8199 17.0005 30.6944 17.0486 30.5842 17.1171L21.4199 15.1596C21.085 15.0844 20.7334 15.1938 20.4932 15.4409L8.48629 27.8296C7.61719 28.727 7.33299 30.018 7.74609 31.1997L9.47459 36.1401C9.78219 37.019 10.3086 37.8149 10.9971 38.4419L12.6726 39.9681C12.3953 40.6388 11.7441 42.5269 12.2373 44.5512C13.5283 49.8491 16.8301 53.0883 22.628 54.7456C23.7608 55.0698 24.9522 55.1753 26.0235 55.1753C27.4047 55.1753 28.5749 55.001 29.1683 54.894C30.0966 55.5228 31.1759 55.8686 32.2871 55.8686C32.7637 55.8686 33.2442 55.8081 33.7188 55.6841C40.2271 53.9596 44.5068 49.7343 46.4627 43.1375C46.6969 43.0986 46.9222 42.9989 47.083 42.7993L52.2051 36.4165C52.2862 36.3149 52.3633 36.2114 52.4365 36.1059L55.5264 31.6528C56.419 30.3676 56.2764 28.6186 55.1875 27.4926L43.5069 15.4409ZM23.1778 52.8227C18.0742 51.3637 15.2988 48.6665 14.1807 44.0786C13.9392 43.0875 14.1006 42.1103 14.2858 41.4377L27.1246 53.133C25.9749 53.2159 24.5037 53.202 23.1778 52.8227ZM44.7217 41.977C44.4613 42.9506 44.1455 43.8585 43.7857 44.7157L33.5244 35.5942C33.1113 35.2251 32.4795 35.2622 32.1133 35.6772C31.7461 36.0893 31.7832 36.7221 32.1963 37.0883L42.6944 46.4204C42.7553 46.4747 42.8268 46.5053 42.8957 46.542C42.3742 47.4665 41.7804 48.3094 41.1119 49.071L30.0303 39.0981C29.6201 38.7299 28.9883 38.7622 28.6182 39.1723C28.249 39.5825 28.2822 40.2153 28.6924 40.5844L39.6867 50.4788C38.935 51.1209 38.1129 51.6883 37.2158 52.1783C37.1635 52.0875 37.1072 51.9976 37.0244 51.9243L26.5264 42.5932C26.1133 42.2251 25.4824 42.2622 25.1153 42.6762C24.7481 43.0883 24.7852 43.7212 25.1983 44.0874L35.3023 53.0682C34.6374 53.3278 33.9412 53.5559 33.21 53.7495C32.0196 54.063 30.7725 53.7524 29.8662 52.9253L12.3438 36.9633C11.9004 36.5591 11.5606 36.0464 11.3633 35.4799L9.63379 30.5395C9.47169 30.0776 9.58299 29.5717 9.92289 29.2212L21.544 17.2309L32.5918 19.5903C33.2647 19.7339 33.8819 20.0639 34.377 20.5434L37.8145 23.8755C38.4854 24.5258 38.8203 25.4311 38.7344 26.3608C38.6494 27.2885 38.1543 28.1176 37.377 28.6342L36.5244 29.2007C33.8701 26.8208 31.751 24.9253 31.751 24.9253C31.3399 24.5581 30.7119 24.5903 30.3428 24.9995C29.9737 25.4067 30.003 26.0356 30.4082 26.4077L35.6846 31.2466C35.792 31.3442 35.916 31.4155 36.0479 31.4594C38.7061 33.8432 41.709 36.5385 43.626 38.2719C44.669 39.2046 45.0889 40.6235 44.7217 41.977ZM53.8838 30.5122L50.793 34.9663C50.7442 35.0376 50.6924 35.1059 50.6416 35.1694L46.7579 40.0081C46.5402 38.7864 45.929 37.6487 44.9639 36.7846C43.208 35.1987 40.542 32.8032 38.0625 30.5796L38.4834 30.3012C39.7686 29.4467 40.586 28.0766 40.7266 26.5434C40.8682 25.0083 40.3145 23.5132 39.2071 22.4399L35.7686 19.1069C35.4861 18.8331 35.1707 18.6028 34.8418 18.3952L42.4317 17.2055L53.751 28.8842C54.1768 29.3247 54.2324 30.0092 53.8838 30.5122Z" fill="#FE4646"/>
<path d="M19.5069 13.2387L14.6992 8.42435C14.5117 8.23685 14.2569 8.13135 13.9922 8.13135C13.9912 8.13135 13.9912 8.13135 13.9912 8.13135C13.7266 8.13135 13.4717 8.23685 13.2842 8.42335L0.4942 21.1958C0.1035 21.5864 0.1035 22.2192 0.4932 22.6108L5.3008 27.4253C5.4883 27.6128 5.7432 27.7182 6.0078 27.7182C6.0088 27.7182 6.0088 27.7182 6.0088 27.7182C6.2735 27.7182 6.5283 27.6128 6.7158 27.4262L19.5059 14.6538C19.8965 14.2632 19.8965 13.6303 19.5069 13.2387ZM6.0098 25.3042L2.6153 21.9048L13.9903 10.5454L17.3848 13.9448L6.0098 25.3042Z" fill="#FE4646"/>
<path d="M63.5059 21.1958L50.7158 8.42335C50.5283 8.23685 50.2735 8.13135 50.0088 8.13135H50.0078C49.7432 8.13135 49.4883 8.23685 49.3008 8.42435L44.4932 13.2387C44.1035 13.6303 44.1035 14.2632 44.4942 14.6538L57.2842 27.4262C57.4717 27.6128 57.7266 27.7182 57.9912 27.7182H57.9922C58.2569 27.7182 58.5117 27.6128 58.6992 27.4253L63.5069 22.6108C63.8965 22.2192 63.8965 21.5864 63.5059 21.1958ZM57.9903 25.3042L46.6153 13.9448L50.0098 10.5454L61.3848 21.9048L57.9903 25.3042Z" fill="#FE4646"/>
</svg>
