<svg width="70" height="70" viewBox="0 0 70 70" fill="none" xmlns="http://www.w3.org/2000/svg">
<path d="M58.7563 12.0531H31.3359C27.2453 12.0531 23.9203 14.7875 23.9203 18.1453V20.7594H10.6422C6.87969 20.7594 3.82812 23.275 3.82812 26.3703V43.6734C3.82812 46.7687 6.87969 49.2844 10.6422 49.2844H13.2891L22.2688 57.6515C22.4691 57.8426 22.7357 57.9485 23.0125 57.9469C23.1629 57.9496 23.3122 57.9198 23.45 57.8594C23.6447 57.7727 23.8103 57.6316 23.9267 57.4531C24.0431 57.2746 24.1055 57.0662 24.1063 56.8531V49.2844H35.3828C39.1453 49.2844 42.1969 46.7687 42.1969 43.6734V43.4219H43.9469V51.9094C43.9471 52.124 44.0104 52.3339 44.129 52.5129C44.2477 52.6918 44.4164 52.8319 44.6141 52.9156C44.7477 52.9769 44.8936 53.0069 45.0406 53.0031C45.3185 53.0038 45.587 52.9026 45.7953 52.7187L55.7812 43.4219H58.7563C62.8469 43.4219 66.1719 40.6875 66.1719 37.3187V18.1453C66.1719 14.7875 62.8469 12.0531 58.7563 12.0531ZM40.0094 43.6734C40.0094 45.5328 37.8875 47.0969 35.3828 47.0969H23.0125C22.7224 47.0969 22.4442 47.2121 22.2391 47.4172C22.034 47.6223 21.9188 47.9005 21.9188 48.1906V54.3375L14.4594 47.3922C14.2577 47.2033 13.9919 47.0978 13.7156 47.0969H10.6422C8.09375 47.0969 6.01562 45.5656 6.01562 43.6734V26.3703C6.01562 24.489 8.09375 22.9469 10.6422 22.9469H23.9203V37.3187C23.9203 40.6875 27.2453 43.4219 31.3359 43.4219H40.0094V43.6734ZM63.9844 37.3187C63.9844 39.4734 61.6328 41.2344 58.7563 41.2344H55.3437C55.0692 41.2338 54.8042 41.3351 54.6 41.5187L46.1344 49.4047V42.3281C46.1358 42.1841 46.1085 42.0412 46.0541 41.9078C45.9996 41.7745 45.9191 41.6533 45.8173 41.5514C45.7154 41.4496 45.5943 41.3691 45.4609 41.3146C45.3275 41.2602 45.1847 41.2329 45.0406 41.2344H31.3359C28.4594 41.2344 26.1078 39.4734 26.1078 37.3187V18.1453C26.1078 15.9906 28.4594 14.2406 31.3359 14.2406H58.7563C61.6328 14.2406 63.9844 15.9906 63.9844 18.1453V37.3187Z" fill="#FE4646"/>
<path d="M34.0266 23.45C33.2169 23.451 32.4257 23.692 31.753 24.1425C31.0802 24.593 30.556 25.2328 30.2467 25.9811C29.9373 26.7293 29.8567 27.5524 30.0149 28.3465C30.1731 29.1405 30.5631 29.8699 31.1357 30.4424C31.7082 31.0149 32.4375 31.4049 33.2316 31.5632C34.0256 31.7214 34.8488 31.6407 35.597 31.3314C36.3453 31.022 36.985 30.4979 37.4355 29.8251C37.886 29.1524 38.127 28.3612 38.1281 27.5515C38.1278 26.4638 37.6956 25.4207 36.9265 24.6516C36.1574 23.8825 35.1143 23.4502 34.0266 23.45V23.45ZM34.0266 29.4546C33.6491 29.4536 33.2804 29.3406 32.9671 29.1299C32.6539 28.9193 32.4101 28.6205 32.2666 28.2714C32.1232 27.9222 32.0865 27.5384 32.1612 27.1683C32.2359 26.7983 32.4186 26.4588 32.6863 26.1926C32.954 25.9265 33.2946 25.7457 33.6651 25.6731C34.0355 25.6005 34.4191 25.6394 34.7675 25.7848C35.1158 25.9303 35.4132 26.1758 35.622 26.4902C35.8308 26.8047 35.9417 27.174 35.9406 27.5515C35.9377 28.0573 35.7348 28.5413 35.3762 28.8979C35.0175 29.2545 34.5323 29.4546 34.0266 29.4546V29.4546Z" fill="#FE4646"/>
<path d="M45.0406 23.45C44.231 23.451 43.4398 23.692 42.767 24.1425C42.0943 24.593 41.5701 25.2328 41.2607 25.9811C40.9514 26.7293 40.8707 27.5524 41.029 28.3465C41.1872 29.1405 41.5772 29.8699 42.1497 30.4424C42.7222 31.0149 43.4516 31.4049 44.2456 31.5632C45.0397 31.7214 45.8628 31.6407 46.6111 31.3314C47.3593 31.022 47.9991 30.4979 48.4496 29.8251C48.9001 29.1524 49.1411 28.3612 49.1422 27.5515C49.1423 27.0128 49.0363 26.4794 48.8303 25.9817C48.6242 25.4841 48.3221 25.0318 47.9412 24.651C47.5603 24.2701 47.1081 23.9679 46.6104 23.7619C46.1127 23.5558 45.5793 23.4498 45.0406 23.45V23.45ZM45.0406 29.4546C44.6631 29.4536 44.2945 29.3406 43.9812 29.1299C43.6679 28.9193 43.4242 28.6205 43.2807 28.2714C43.1372 27.9222 43.1005 27.5384 43.1752 27.1683C43.25 26.7983 43.4327 26.4588 43.7004 26.1926C43.9681 25.9265 44.3087 25.7457 44.6791 25.6731C45.0496 25.6005 45.4332 25.6394 45.7815 25.7848C46.1299 25.9303 46.4272 26.1758 46.6361 26.4902C46.8449 26.8047 46.9558 27.174 46.9547 27.5515C46.9545 27.8023 46.9049 28.0506 46.8085 28.2822C46.7121 28.5137 46.5709 28.7239 46.3931 28.9008C46.2152 29.0776 46.0042 29.2176 45.7721 29.3126C45.54 29.4077 45.2914 29.4559 45.0406 29.4546V29.4546Z" fill="#FE4646"/>
<path d="M56.0656 23.45C55.256 23.451 54.4648 23.692 53.792 24.1425C53.1193 24.593 52.5951 25.2328 52.2858 25.9811C51.9764 26.7293 51.8957 27.5524 52.054 28.3465C52.2122 29.1405 52.6022 29.8699 53.1747 30.4424C53.7472 31.0149 54.4766 31.4049 55.2706 31.5632C56.0647 31.7214 56.8878 31.6407 57.6361 31.3314C58.3843 31.022 59.0241 30.4979 59.4746 29.8251C59.9251 29.1524 60.1661 28.3612 60.1672 27.5515C60.1669 26.4638 59.7347 25.4207 58.9655 24.6516C58.1964 23.8825 57.1533 23.4502 56.0656 23.45ZM56.0656 29.4546C55.6881 29.4536 55.3195 29.3406 55.0062 29.1299C54.6929 28.9193 54.4492 28.6205 54.3057 28.2714C54.1622 27.9222 54.1255 27.5384 54.2003 27.1683C54.275 26.7983 54.4577 26.4588 54.7254 26.1926C54.9931 25.9265 55.3337 25.7457 55.7041 25.6731C56.0746 25.6005 56.4582 25.6394 56.8065 25.7848C57.1549 25.9303 57.4522 26.1758 57.6611 26.4902C57.8699 26.8047 57.9808 27.174 57.9797 27.5515C57.9793 27.8022 57.9294 28.0504 57.8329 28.2818C57.7364 28.5132 57.5952 28.7234 57.4174 28.9001C57.2397 29.0769 57.0287 29.2169 56.7968 29.312C56.5648 29.4072 56.3163 29.4556 56.0656 29.4546Z" fill="#FE4646"/>
</svg>
