<svg width="50" height="50" viewBox="0 0 50 50" fill="none" xmlns="http://www.w3.org/2000/svg">
<g clip-path="url(#clip0_13_2163)">
<path d="M28.3332 0H11.6666C9.36908 0 7.49994 1.86914 7.49994 4.1667V34.1667C7.49994 36.4642 9.36908 38.3334 11.6666 38.3334H26.6666V36.6667H11.6666C10.2883 36.6667 9.16664 35.545 9.16664 34.1667V4.1667C9.16664 2.78838 10.2883 1.6667 11.6666 1.6667H28.3333C29.7117 1.6667 30.8333 2.78838 30.8333 4.1667V28.3334H32.4999V4.1667C32.4999 1.86914 30.6308 0 28.3332 0Z" fill="#FE4646"/>
<path d="M40.4925 22.1967L32.3175 11.98L31.015 13.0217L39.19 23.2375C40.2508 24.5625 40.8341 26.2275 40.8333 27.925V48.3333H28.6417C24.3368 48.3333 20.8334 44.8308 20.8334 40.525V37.5H19.1667V40.525C19.1667 45.7491 23.4176 50 28.6417 50H41.6667C42.1276 50 42.5 49.6275 42.5 49.1667V27.9259C42.5009 25.8525 41.7884 23.8175 40.4925 22.1967Z" fill="#FE4646"/>
<path d="M21.6634 19.6525C22.2484 19.6692 22.7926 19.9125 23.1934 20.3375L34.3926 32.2375L35.6068 31.095L24.4059 19.1941C23.6984 18.4449 22.7408 18.0158 21.7109 17.9866C20.67 17.9516 19.7009 18.3307 18.9609 19.03C18.9517 19.0391 18.885 19.1024 18.8767 19.1116C17.4526 20.5399 17.3567 22.7816 18.6559 24.33L25.8334 32.805V35.3833C25.8325 39.9883 28.7284 44.1658 33.0409 45.7807L33.6259 44.2199C29.9609 42.8474 27.4992 39.2966 27.5 35.3833V32.5C27.5 32.3033 27.43 32.1116 27.3026 31.9608L19.9301 23.255C19.1926 22.3766 19.2468 21.1008 20.0968 20.25C20.5217 19.8483 21.0767 19.6491 21.6634 19.6525Z" fill="#FE4646"/>
<path d="M27.5 1.66675H25.8333V22.5H27.5V1.66675Z" fill="#FE4646"/>
<path d="M23.3334 27.5H21.6667V37.5H23.3334V27.5Z" fill="#FE4646"/>
<path d="M23.3334 0.833252H21.6667V19.1666H23.3334V0.833252Z" fill="#FE4646"/>
<path d="M13.3334 4.16675H11.6667V15H13.3334V4.16675Z" fill="#FE4646"/>
<path d="M17.5 4.16675H15.8333V10.8334H17.5V4.16675Z" fill="#FE4646"/>
<path d="M17.5 27.5H12.5C12.0401 27.5 11.6667 27.8725 11.6667 28.3333V33.3333C11.6667 33.7941 12.0401 34.1666 12.5 34.1666H17.5C17.96 34.1666 18.3333 33.7941 18.3333 33.3333V28.3333C18.3333 27.8725 17.96 27.5 17.5 27.5ZM16.6667 32.5H13.3334V29.1667H16.6667V32.5Z" fill="#FE4646"/>
</g>
<defs>
<clipPath id="clip0_13_2163">
<rect width="50" height="50" fill="white"/>
</clipPath>
</defs>
</svg>
