<svg width="54" height="54" viewBox="0 0 54 54" fill="none" xmlns="http://www.w3.org/2000/svg">
<g clip-path="url(#clip0_13_2194)">
<path d="M27.0001 21.5999C24.6493 21.5999 22.7369 23.5122 22.7369 25.863C22.7369 28.2138 24.6493 30.1261 27.0001 30.1261C29.3508 30.1261 31.2632 28.2138 31.2632 25.863C31.2632 23.5122 29.3507 21.5999 27.0001 21.5999ZM27.0001 28.4209C25.5896 28.4209 24.4421 27.2735 24.4421 25.863C24.4421 24.4526 25.5895 23.3051 27.0001 23.3051C28.4104 23.3051 29.558 24.4525 29.558 25.863C29.5579 27.2734 28.4104 28.4209 27.0001 28.4209Z" fill="#FE4646"/>
<path d="M49.4526 44.3529V25.8631C49.4526 20.2663 47.3811 14.9047 43.6196 10.7663C40.0732 6.86431 35.3079 4.35068 30.1264 3.62801V2.01561C30.1264 0.904287 29.2221 0 28.1107 0H25.8894C24.7779 0 23.8738 0.904287 23.8738 2.01561V3.62801C18.6812 4.35226 13.9061 6.87581 10.3588 10.7902C6.6113 14.9252 4.54749 20.2781 4.54749 25.8631V48.9003C3.27038 49.0421 2.2738 50.1276 2.2738 51.4421C2.2738 52.8525 3.4212 54 4.83173 54H10.516C11.9264 54 13.0739 52.8526 13.0739 51.4421C13.0739 50.1277 12.0773 49.0422 10.8002 48.9003V41.393C14.8894 45.657 20.6399 48.3157 27.0002 48.3157C33.1657 48.3157 38.9738 45.8189 43.2001 41.4092V44.353C41.923 44.4949 40.9264 45.5803 40.9264 46.8948C40.9264 47.8196 41.4198 48.6313 42.1572 49.0807L43.2255 53.3542C43.3205 53.7338 43.6616 54.0001 44.0527 54.0001H48.6001C48.9913 54.0001 49.3324 53.7339 49.4273 53.3542L50.4957 49.0807C51.233 48.6312 51.7264 47.8195 51.7264 46.8947C51.7263 45.5803 50.7297 44.4948 49.4526 44.3529ZM30.1264 5.34926C40.241 6.86706 47.7474 15.5142 47.7474 25.8631V44.3368H44.9053V25.8631C44.9053 21.4975 43.3164 17.2922 40.4313 14.0221C37.7382 10.9697 34.102 8.93202 30.1264 8.23077V5.34926ZM25.579 2.01561C25.579 1.84454 25.7182 1.70522 25.8894 1.70522H28.1107C28.2819 1.70522 28.4211 1.84443 28.4211 2.01561V15.6054C28.4211 15.7765 28.2819 15.9158 28.1107 15.9158H25.8894C25.7183 15.9158 25.579 15.7766 25.579 15.6054V2.01561ZM25.8894 17.6211H28.1107C29.2222 17.6211 30.1264 16.7168 30.1264 15.6054V14.6341C35.1238 16.0168 38.6526 20.585 38.6526 25.8631C38.6526 32.2885 33.4253 37.5157 27.0001 37.5157C20.5748 37.5157 15.3475 32.2883 15.3475 25.8631C15.3475 20.585 18.8763 16.0167 23.8738 14.6341V15.6054C23.8737 16.7168 24.7779 17.6211 25.8894 17.6211ZM6.25271 34.443C6.99141 36.2229 7.95255 37.8876 9.10152 39.4027C9.09751 39.4364 9.09477 39.4703 9.09477 39.5051V48.884H6.25271V34.443ZM11.3685 51.442C11.3685 51.9121 10.986 52.2946 10.5159 52.2946H4.83163C4.36145 52.2946 3.97902 51.9121 3.97902 51.442C3.97902 50.9718 4.36145 50.5894 4.83163 50.5894H10.5159C10.986 50.5894 11.3685 50.9718 11.3685 51.442ZM43.0865 38.9665C39.1246 43.8244 33.2614 46.6103 27.0001 46.6103C15.5599 46.6103 6.25271 37.3032 6.25271 25.863C6.25271 15.5253 13.7632 6.86843 23.8738 5.34968V8.23077C20.4359 8.8371 17.2519 10.443 14.7121 12.84C14.3603 13.172 14.3526 13.7299 14.6947 14.0719C15.0228 14.4 15.5525 14.4082 15.8895 14.0892C18.0603 12.0343 20.8031 10.5662 23.8739 9.96541V12.8738C17.7372 14.3415 13.4054 19.956 13.6523 26.3856C13.9251 33.4914 19.8008 39.1744 26.9116 39.2206C34.3177 39.2689 40.358 33.2581 40.358 25.8631C40.358 19.6536 36.0962 14.3015 30.1264 12.8738V9.96551C37.6447 11.4363 43.1999 18.1041 43.1999 25.8631C43.1999 34.7959 35.9327 42.0631 27 42.0631C18.0672 42.0631 10.8 34.7959 10.8 25.8631C10.8 22.4134 11.8987 19.1801 13.7792 16.5228C14.0195 16.1831 13.9769 15.7189 13.6828 15.4248L13.6821 15.4241C13.3069 15.0489 12.6819 15.0991 12.3755 15.5325C10.249 18.5402 9.09477 22.1433 9.09477 25.8631C9.09477 35.7361 17.127 43.7683 27 43.7683C34.1489 43.7683 40.3318 39.5562 43.1999 33.4838V39.059L43.0865 38.9665ZM47.9343 52.2947H44.7182L44.0077 49.4526H48.6447L47.9343 52.2947ZM49.1684 47.7473H43.4842C43.014 47.7473 42.6315 47.3649 42.6315 46.8947C42.6315 46.4245 43.014 46.0421 43.4842 46.0421H49.1684C49.6386 46.0421 50.021 46.4245 50.021 46.8947C50.021 47.3649 49.6386 47.7473 49.1684 47.7473Z" fill="#FE4646"/>
</g>
<defs>
<clipPath id="clip0_13_2194">
<rect width="54" height="54" fill="white"/>
</clipPath>
</defs>
</svg>
