<svg width="51" height="51" viewBox="0 0 51 51" fill="none" xmlns="http://www.w3.org/2000/svg">
<g clip-path="url(#clip0_13_2229)">
<path d="M5.72446 38.5101H3.64282V40.5918H5.72446V38.5101Z" fill="#FE4646"/>
<path d="M11.4489 38.5101H7.28564V40.5918H11.4489V38.5101Z" fill="#FE4646"/>
<path d="M25.5001 38.5101H23.4185V40.5918H25.5001V38.5101Z" fill="#FE4646"/>
<path d="M31.2246 38.5101H27.0613V40.5918H31.2246V38.5101Z" fill="#FE4646"/>
<path d="M51 16.1326C51 14.1963 49.6711 12.5645 47.8775 12.1011V8.84691C47.8775 7.52698 47.4323 6.26433 46.6237 5.29185C45.7397 4.22842 44.5216 3.64281 43.1938 3.64281H34.8673V1.04082C34.8674 0.465973 34.4013 0 33.8265 0H28.6225C28.0476 0 27.5816 0.465973 27.5816 1.04082V3.64281H14.051V1.04082C14.051 0.465973 13.585 0 13.0102 0H7.80609C7.23124 0 6.76527 0.465973 6.76527 1.04082V3.64281H4.68363V2.08164H2.602V7.28573H4.68363V5.72445H6.76527V7.43385C3.13172 8.12852 0.297932 11.1989 0.0346641 14.9952C0.0116543 15.1938 0 15.4014 0 15.6123V42.6735C0 47.2647 3.73525 51 8.32655 51H13.5306C16.6626 51 19.395 49.2611 20.8164 46.6989C22.2377 49.2611 24.9701 51 28.102 51H33.3061C37.8974 51 41.6326 47.2647 41.6326 42.6735V15.6123C41.6326 11.5548 38.7146 8.16777 34.8674 7.43464V5.72445H43.1939C44.801 5.72445 45.7959 7.3452 45.7959 8.84691V12.1011C44.0023 12.5645 42.6735 14.1964 42.6735 16.1326C42.6735 18.0688 44.0023 19.7007 45.7959 20.1641V24.5483L44.0192 26.3251L45.4912 27.7971L46.8367 26.4516L48.1824 27.7972L49.6544 26.3252L47.8775 24.5482V20.164C49.6711 19.7007 51 18.0689 51 16.1326ZM29.6633 2.08164H32.7857V7.28573H29.6633V2.08164ZM8.84691 2.08164H11.9694V7.28573H8.84691V2.08164ZM19.7755 42.6735C19.7755 46.1168 16.974 48.9184 13.5306 48.9184H8.32655C4.88315 48.9184 2.08164 46.1168 2.08164 42.6735V36.949H19.7755V42.6735ZM19.7755 34.8674H2.08164V21.3367H19.7755V34.8674ZM19.7755 19.2551H2.08164V16.1326H9.88772V14.051H2.28683C2.97274 11.3511 5.43807 9.36736 8.32645 9.36736H13.0101H13.5304C16.9738 9.36736 19.7754 12.1688 19.7754 15.6123V19.2551H19.7755ZM14.051 7.30366V5.72445H27.5816V7.30386C24.6824 7.48465 22.1589 9.16247 20.8172 11.5882C19.4753 9.16835 16.964 7.48435 14.051 7.30366ZM39.551 42.6735C39.551 46.1168 36.7496 48.9184 33.3061 48.9184H28.102C24.6586 48.9184 21.8571 46.1168 21.8571 42.6735V36.949H39.551V42.6735ZM39.551 34.8674H21.8572V21.3367H39.5511V34.8674H39.551ZM39.551 15.6123V19.2551H21.8572V16.1326H29.6633V14.051H22.0624C22.7483 11.3511 25.2136 9.36736 28.102 9.36736H28.6224H33.306C36.7496 9.36736 39.551 12.1688 39.551 15.6123ZM46.8367 18.2143C45.6889 18.2143 44.7551 17.2804 44.7551 16.1326C44.7551 14.9848 45.6889 14.051 46.8367 14.051C47.9845 14.051 48.9184 14.9848 48.9184 16.1326C48.9184 17.2804 47.9845 18.2143 46.8367 18.2143Z" fill="#FE4646"/>
</g>
<defs>
<clipPath id="clip0_13_2229">
<rect width="51" height="51" fill="white"/>
</clipPath>
</defs>
</svg>
