<svg width="69" height="69" viewBox="0 0 69 69" fill="none" xmlns="http://www.w3.org/2000/svg">
<path d="M34.5 8.38782C20.1043 8.38782 8.3932 20.0531 8.3932 34.3895C8.3932 48.7259 20.1043 60.3993 34.5 60.3993C48.8957 60.3993 60.6068 48.7339 60.6068 34.3962C60.6068 20.0585 48.8957 8.38782 34.5 8.38782ZM34.5 58.2363C21.293 58.2363 10.5495 47.5386 10.5495 34.3895C10.5495 21.2404 21.293 10.5441 34.5 10.5441C47.707 10.5441 58.4505 21.2418 58.4505 34.3895C58.4505 47.5372 47.707 58.2363 34.5 58.2363ZM51.6934 44.2746C51.55 44.5207 51.3151 44.7002 51.0398 44.7737C50.7646 44.8471 50.4714 44.8087 50.2244 44.6667L47.5291 43.1156C47.2813 42.9726 47.1003 42.737 47.0262 42.4607C46.952 42.1843 46.9906 41.8898 47.1336 41.6419C47.2766 41.394 47.5121 41.2131 47.7885 41.1389C48.0649 41.0648 48.3594 41.1034 48.6073 41.2464L50.3471 42.245C51.3989 40.1308 52.0136 37.8262 52.1543 35.469H50.1571C49.8711 35.469 49.5969 35.3554 49.3947 35.1532C49.1925 34.951 49.0789 34.6768 49.0789 34.3908C49.0789 34.1049 49.1925 33.8307 49.3947 33.6285C49.5969 33.4263 49.8711 33.3127 50.1571 33.3127H52.1543C52.0115 30.9517 51.3898 28.6444 50.3269 26.5313L48.5924 27.5286C48.4287 27.6237 48.2427 27.6734 48.0534 27.6728C47.8155 27.6734 47.5842 27.5953 47.3953 27.4508C47.2064 27.3062 47.0707 27.1032 47.0092 26.8735C46.9476 26.6437 46.9638 26.4001 47.0552 26.1805C47.1466 25.9609 47.308 25.7777 47.5143 25.6594L49.2393 24.6688C47.9245 22.6987 46.2292 21.0112 44.253 19.7054L43.2598 21.4277C43.1106 21.6624 42.8765 21.8304 42.6064 21.8965C42.3363 21.9627 42.0511 21.9219 41.8104 21.7828C41.5696 21.6436 41.392 21.4168 41.3145 21.1497C41.237 20.8827 41.2657 20.596 41.3946 20.3496L42.3905 18.6314C40.2657 17.571 37.9485 16.9513 35.5781 16.8093V18.7985C35.5781 19.0844 35.4645 19.3586 35.2623 19.5608C35.0602 19.763 34.7859 19.8766 34.5 19.8766C34.2141 19.8766 33.9398 19.763 33.7376 19.5608C33.5355 19.3586 33.4219 19.0844 33.4219 18.7985V16.8093C31.0512 16.9503 28.7335 17.5691 26.6081 18.6287L27.604 20.3496C27.684 20.4723 27.7382 20.6099 27.7632 20.7542C27.7883 20.8985 27.7837 21.0463 27.7497 21.1888C27.7157 21.3312 27.653 21.4652 27.5655 21.5827C27.4781 21.7001 27.3676 21.7985 27.2408 21.8718C27.1141 21.9451 26.9737 21.9918 26.8283 22.0091C26.6829 22.0264 26.5355 22.0139 26.3951 21.9724C26.2547 21.9308 26.1242 21.8611 26.0116 21.7675C25.899 21.6738 25.8067 21.5582 25.7402 21.4277L24.7416 19.7054C22.7658 21.0111 21.0705 22.6981 19.7553 24.6675L21.4803 25.6594C21.603 25.7302 21.7106 25.8244 21.7969 25.9368C21.8832 26.0492 21.9465 26.1774 21.9833 26.3143C22.02 26.4511 22.0294 26.5939 22.011 26.7343C21.9925 26.8748 21.9466 27.0103 21.8758 27.133C21.805 27.2558 21.7108 27.3634 21.5984 27.4497C21.486 27.536 21.3578 27.5993 21.2209 27.636C21.0841 27.6727 20.9413 27.6822 20.8009 27.6637C20.6604 27.6453 20.5249 27.5994 20.4022 27.5286L18.6664 26.5313C17.606 28.6445 16.9866 30.9513 16.8457 33.3114H18.8483C19.1343 33.3114 19.4085 33.425 19.6107 33.6271C19.8129 33.8293 19.9264 34.1036 19.9264 34.3895C19.9264 34.6754 19.8129 34.9497 19.6107 35.1518C19.4085 35.354 19.1343 35.4676 18.8483 35.4676H16.8457C16.9906 37.8283 17.6108 40.1353 18.6691 42.2504L20.4076 41.2518C20.5303 41.181 20.6658 41.135 20.8062 41.1166C20.9467 41.0982 21.0895 41.1076 21.2263 41.1443C21.3631 41.1811 21.4914 41.2444 21.6038 41.3307C21.7162 41.417 21.8104 41.5246 21.8812 41.6473C21.952 41.77 21.9979 41.9055 22.0164 42.046C22.0348 42.1865 22.0254 42.3292 21.9887 42.466C21.9519 42.6029 21.8886 42.7312 21.8023 42.8435C21.716 42.9559 21.6084 43.0502 21.4857 43.121L18.7904 44.6721C18.5435 44.8137 18.2507 44.8519 17.9758 44.7784C17.7009 44.7049 17.4661 44.5258 17.3228 44.2799C15.5917 41.2925 14.6757 37.9028 14.6665 34.4501C14.6665 34.4313 14.6665 34.4138 14.6665 34.3949C14.6665 34.376 14.6665 34.3625 14.6665 34.3464C14.6641 30.9302 15.5547 27.5727 17.25 24.6069C17.2652 24.5722 17.2823 24.5385 17.3012 24.5058C17.3227 24.4688 17.3465 24.4332 17.3726 24.3993C19.0983 21.4802 21.5393 19.0489 24.4653 17.3349C24.4977 17.3104 24.5314 17.2879 24.5664 17.2675C24.6014 17.2477 24.6374 17.2297 24.6742 17.2136C27.652 15.5175 31.0191 14.6235 34.4461 14.6194H34.5431C37.9701 14.6235 41.3372 15.5175 44.315 17.2136C44.3518 17.2297 44.3878 17.2477 44.4228 17.2675C44.4578 17.2879 44.4916 17.3104 44.5239 17.3349C47.4502 19.0485 49.8913 21.4798 51.6166 24.3993C51.6427 24.4332 51.6666 24.4688 51.688 24.5058C51.7069 24.5395 51.7244 24.5732 51.7392 24.6069C53.4412 27.569 54.3392 30.9247 54.3442 34.341C54.3442 34.3572 54.3442 34.3733 54.3442 34.3908C54.3442 34.4084 54.3442 34.4259 54.3442 34.4447C54.335 37.8964 53.4195 41.2851 51.6894 44.2719L51.6934 44.2746ZM38.7114 34.3868C38.7083 33.7416 38.557 33.1058 38.2691 32.5284C37.9812 31.951 37.5645 31.4475 37.051 31.0568C36.5376 30.666 35.9413 30.3985 35.308 30.2749C34.6748 30.1513 34.0216 30.1749 33.399 30.3438L29.6848 23.9371C29.6174 23.8082 29.5247 23.6944 29.4121 23.6023C29.2996 23.5102 29.1695 23.4419 29.0299 23.4014C28.8903 23.3609 28.7439 23.349 28.5995 23.3666C28.4552 23.3841 28.3159 23.4306 28.19 23.5034C28.0641 23.5762 27.9542 23.6737 27.867 23.79C27.7797 23.9063 27.7169 24.0391 27.6823 24.1803C27.6478 24.3215 27.6421 24.4683 27.6657 24.6118C27.6893 24.7553 27.7417 24.8925 27.8197 25.0152L31.5352 31.4206C30.946 32.0062 30.5442 32.7538 30.3808 33.5682C30.2175 34.3827 30.2999 35.2274 30.6177 35.9949C30.9354 36.7624 31.4742 37.4182 32.1654 37.8788C32.8567 38.3395 33.6693 38.5843 34.5 38.5821C34.8709 38.5817 35.2402 38.5328 35.5983 38.4365L36.3099 39.6656C36.4591 39.9002 36.6932 40.0682 36.9632 40.1343C37.2333 40.2005 37.5185 40.1597 37.7593 40.0206C38 39.8814 38.1777 39.6546 38.2552 39.3876C38.3327 39.1205 38.3039 38.8338 38.1751 38.5874L37.4648 37.3597C37.8584 36.9709 38.1711 36.508 38.3851 35.9978C38.599 35.4876 38.7099 34.9401 38.7114 34.3868ZM32.4543 34.3868C32.4555 34.0292 32.5507 33.6781 32.7302 33.3688C32.9097 33.0594 33.1673 32.8026 33.4771 32.6241C33.8658 32.4017 34.3169 32.3136 34.7607 32.3737C35.2044 32.4337 35.6159 32.6384 35.9315 32.9561C36.2471 33.2737 36.4491 33.6866 36.5062 34.1308C36.5633 34.5749 36.4723 35.0254 36.2474 35.4126C36.0224 35.7998 35.676 36.1019 35.2619 36.2723C34.8478 36.4426 34.3891 36.4716 33.9568 36.3547C33.5245 36.2378 33.1429 35.9817 32.871 35.6259C32.5991 35.2701 32.4521 34.8346 32.4529 34.3868H32.4543ZM40.7572 45.7745H28.2428C27.9569 45.7745 27.6827 45.8881 27.4805 46.0903C27.2783 46.2925 27.1647 46.5667 27.1647 46.8526V53.0828C27.1647 53.3688 27.2783 53.643 27.4805 53.8452C27.6827 54.0474 27.9569 54.161 28.2428 54.161H40.7572C41.0431 54.161 41.3173 54.0474 41.5195 53.8452C41.7217 53.643 41.8353 53.3688 41.8353 53.0828V46.8526C41.8353 46.5667 41.7217 46.2925 41.5195 46.0903C41.3173 45.8881 41.0431 45.7745 40.7572 45.7745ZM39.679 52.0047H29.321V47.9307H39.679V52.0047Z" fill="#FE4646"/>
</svg>
