<svg width="68" height="68" viewBox="0 0 68 68" fill="none" xmlns="http://www.w3.org/2000/svg">
<g clip-path="url(#clip0_13_2204)">
<path d="M55.149 45.3823C53.9748 45.3823 53.0194 46.3377 53.0194 47.5119C53.0194 48.6861 53.9748 49.6415 55.149 49.6415C56.3232 49.6415 57.2786 48.6861 57.2786 47.5119C57.2786 46.3377 56.3232 45.3823 55.149 45.3823Z" fill="#FE4646"/>
<path d="M18.7257 45.3823C17.5515 45.3823 16.5961 46.3377 16.5961 47.5119C16.5961 48.6861 17.5515 49.6415 18.7257 49.6415C19.8999 49.6415 20.8553 48.6861 20.8553 47.5119C20.8553 46.3377 19.8999 45.3823 18.7257 45.3823Z" fill="#FE4646"/>
<path d="M6.97624 45.3823C5.80203 45.3823 4.84665 46.3377 4.84665 47.5119C4.84665 48.6861 5.80203 49.6415 6.97624 49.6415C8.15045 49.6415 9.10583 48.6861 9.10583 47.5119C9.10583 46.3377 8.15045 45.3823 6.97624 45.3823Z" fill="#FE4646"/>
<path d="M66.463 34.1484L64.3277 32.725L61.3837 21.9302C60.9753 20.4325 59.6062 19.3867 58.0539 19.3867H49.2743C48.666 19.3867 48.1728 19.8799 48.1728 20.4882V40.5357H36.2765V37.9809C41.5509 37.4286 45.676 32.9563 45.676 27.5379C45.676 21.7476 40.9652 17.0368 35.1749 17.0368H35.1015V15.7884C35.1015 14.5331 34.0803 13.512 32.8251 13.512H28.1253C26.87 13.512 25.8488 14.5331 25.8488 15.7884V17.0368H10.5011C4.7108 17.0368 0 21.7476 0 27.5379C0 32.5464 3.52557 36.7445 8.22462 37.7875V40.5357H1.10151C0.493184 40.5357 0 41.0289 0 41.6372C0 42.2456 0.493184 42.7387 1.10151 42.7387H1.89548C0.721417 43.9877 0 45.6667 0 47.512C0 51.3586 3.12962 54.4882 6.97624 54.4882C9.44098 54.4882 11.6096 53.2022 12.851 51.2671C14.0923 53.2022 16.261 54.4882 18.7257 54.4882C22.1975 54.4882 25.0844 51.9386 25.6141 48.6135H28.3799C28.8408 49.9779 30.1321 50.9634 31.6501 50.9634H42.2246C43.7426 50.9634 45.0339 49.9779 45.4948 48.6135H48.2606C48.7904 51.9386 51.6772 54.4882 55.149 54.4882C58.6208 54.4882 61.5077 51.9386 62.0374 48.6135H65.7235C66.9788 48.6135 68 47.5923 68 46.337V37.0201C68 35.8635 67.4254 34.7899 66.463 34.1484ZM61.9315 32.3111H56.324C55.6356 32.3111 55.0756 31.7511 55.0756 31.0627V26.2895H60.2893L61.9315 32.3111ZM50.3758 21.5897H58.0539C58.6153 21.5897 59.1105 21.968 59.2583 22.5096L59.6884 24.0865H53.9741C53.3658 24.0865 52.8726 24.5797 52.8726 25.188V31.0627C52.8726 32.9658 54.4209 34.5141 56.324 34.5141H63.0401L65.2409 35.9813C65.5865 36.2118 65.7933 36.5961 65.7964 37.0109H64.5486C63.9403 37.0109 63.4471 37.5041 63.4471 38.1124C63.4471 38.7207 63.9403 39.2139 64.5486 39.2139H65.797V40.5357H50.3758V21.5897ZM48.1728 46.4104H45.4948C45.0339 45.046 43.7426 44.0606 42.2246 44.0606H31.6501C30.1321 44.0606 28.8408 45.046 28.3799 46.4104H25.6141C25.3897 45.0021 24.742 43.7339 23.8063 42.7387H48.1728V46.4104ZM17.4773 40.5357V38.039H34.0734V40.5357H17.4773ZM43.473 27.5379C43.473 32.1134 39.7505 35.8359 35.1749 35.8359H17.4773V19.3133C17.4773 19.2884 17.4753 19.2642 17.4736 19.2398H35.1749C39.7505 19.2398 43.473 22.9623 43.473 27.5379ZM10.4276 28.6394H15.2743V31.1362H10.4276V28.6394ZM15.2743 26.4364H10.4276V23.9396H15.2743V26.4364ZM10.4276 33.3392H15.2743V35.8359H10.5011C10.4764 35.8359 10.4522 35.8343 10.4276 35.834V33.3392ZM28.0518 15.7884C28.0518 15.7479 28.0847 15.715 28.1253 15.715H32.8251C32.8656 15.715 32.8985 15.7479 32.8985 15.7884V17.0368H28.0518V15.7884ZM15.278 19.2398C15.2764 19.2642 15.2743 19.2884 15.2743 19.3133V21.7366H10.4276V19.3133C10.4276 19.2892 10.4256 19.2655 10.424 19.2417C10.4498 19.2416 10.4752 19.2398 10.5011 19.2398H15.278ZM2.20302 27.5379C2.20302 23.7518 4.7528 20.5521 8.22462 19.5599V35.5158C4.7528 34.5237 2.20302 31.324 2.20302 27.5379ZM10.4276 38.0371C10.4522 38.0372 10.4764 38.039 10.5011 38.039H15.2743V40.5357H10.4276V38.0371ZM13.6449 42.7387C13.3502 43.0523 13.0843 43.393 12.851 43.7568C12.6176 43.393 12.3518 43.0523 12.057 42.7387H13.6449ZM6.97624 52.2852C4.34436 52.2852 2.20302 50.1438 2.20302 47.512C2.20302 44.8801 4.34436 42.7387 6.97624 42.7387C9.60812 42.7387 11.7495 44.8801 11.7495 47.512C11.7495 50.1438 9.60812 52.2852 6.97624 52.2852ZM18.7257 52.2852C16.0938 52.2852 13.9525 50.1438 13.9525 47.512C13.9525 44.8801 16.0938 42.7387 18.7257 42.7387C21.3576 42.7387 23.4989 44.8801 23.4989 47.512C23.4989 50.1438 21.3576 52.2852 18.7257 52.2852ZM42.2246 48.7603H31.6501C30.9617 48.7603 30.4017 48.2003 30.4017 47.512C30.4017 46.8236 30.9617 46.2636 31.6501 46.2636H42.2246C42.913 46.2636 43.473 46.8236 43.473 47.512C43.473 48.2003 42.913 48.7603 42.2246 48.7603ZM55.149 52.2852C52.5171 52.2852 50.3758 50.1438 50.3758 47.512C50.3758 44.8801 52.5171 42.7387 55.149 42.7387C57.7809 42.7387 59.9222 44.8801 59.9222 47.512C59.9222 50.1438 57.7809 52.2852 55.149 52.2852ZM65.7235 46.4104H62.0374C61.813 45.0021 61.1653 43.7339 60.2296 42.7387H65.797V46.337C65.797 46.3776 65.7641 46.4104 65.7235 46.4104Z" fill="#FE4646"/>
</g>
<defs>
<clipPath id="clip0_13_2204">
<rect width="68" height="68" fill="white"/>
</clipPath>
</defs>
</svg>
