<svg width="58" height="58" viewBox="0 0 58 58" fill="none" xmlns="http://www.w3.org/2000/svg">
<path d="M55.2812 22.6562C55.2812 21.2062 55.1 19.7563 54.7375 18.3063C54.6469 17.9438 54.2844 17.6719 53.9219 17.5812C53.5594 17.5812 53.1969 17.8531 53.0156 18.2156C51.7469 21.9312 48.3031 24.4688 44.4062 24.4688C39.4219 24.4688 35.3438 20.3906 35.3438 15.4062C35.3438 11.5094 37.8813 8.06562 41.5969 6.79688C41.9594 6.70625 42.2312 6.34375 42.2312 5.89062C42.2312 5.52812 41.9594 5.16562 41.5062 5.075C40.0562 4.7125 38.6063 4.53125 37.1562 4.53125C28.0031 4.53125 20.3 11.3281 19.2125 20.3906C16.675 21.75 14.7719 23.925 13.8656 26.6437C7.79375 25.8281 2.71875 30.5406 2.71875 36.3406C2.71875 41.7781 7.15937 46.2188 12.5969 46.2188H18.2156C18.125 46.4906 18.125 46.8531 18.125 47.125C18.125 50.6594 20.9344 53.4688 24.4688 53.4688C28.0031 53.4688 30.8125 50.6594 30.8125 47.125C30.8125 46.8531 30.8125 46.4906 30.7219 46.2188H37.8812C42.3219 46.2188 45.9469 42.775 46.2188 38.3344C51.8375 35.1625 55.2812 29.1812 55.2812 22.6562ZM24.4688 51.6562C21.9312 51.6562 19.9375 49.6625 19.9375 47.125C19.9375 44.7687 22.7469 41.2344 24.4688 39.3313C26.1906 41.1438 29 44.7687 29 47.125C29 49.6625 27.0063 51.6562 24.4688 51.6562ZM37.8812 44.4062H30.1781C28.8187 41.1437 25.5563 37.8812 25.1031 37.4281C24.7406 37.0656 24.1969 37.0656 23.8344 37.4281C23.3812 37.8812 20.2094 41.1437 18.7594 44.4062H12.5063C8.15625 44.4062 4.53125 40.7812 4.53125 36.3406C4.53125 31.3562 9.0625 27.3687 14.2281 28.4562C14.6812 28.5469 15.1344 28.275 15.3156 27.8219C16.0406 25.1031 17.9438 22.9281 20.3906 21.75C20.3906 21.75 20.4813 21.75 20.4813 21.6594C21.75 21.1156 23.1094 20.7531 24.4688 20.7531C29.725 20.7531 33.9844 25.0125 33.9844 30.2688C33.9844 30.8125 34.3469 31.175 34.8906 31.175H37.8812C41.5062 31.175 44.4062 34.075 44.4062 37.7C44.4062 41.4156 41.5062 44.4062 37.8812 44.4062ZM46.0375 36.3406C45.3125 32.4437 41.8687 29.5437 37.8812 29.5437H35.7969C35.3438 23.6531 30.45 19.0312 24.4688 19.0312C23.3813 19.0312 22.2031 19.2125 21.1156 19.575C22.5656 11.8719 29.2719 6.34375 37.1562 6.34375C37.5187 6.34375 37.9719 6.34375 38.3344 6.34375C35.3438 8.3375 33.5312 11.6906 33.5312 15.4062C33.5312 21.3875 38.425 26.2812 44.4062 26.2812C48.1219 26.2812 51.475 24.4688 53.4688 21.4781C53.4688 21.8406 53.4688 22.2938 53.4688 22.6562C53.4688 28.1844 50.6594 33.35 46.0375 36.3406Z" fill="#FE4646"/>
</svg>
