<svg width="60" height="60" viewBox="0 0 60 60" fill="none" xmlns="http://www.w3.org/2000/svg">
<path d="M30 10.0208C29.4812 10.0208 29.0605 10.4413 29.0605 10.9602V21.0438H23.9875C23.4687 21.0438 23.048 21.4643 23.048 21.9833C23.048 22.5022 23.4686 22.9227 23.9875 22.9227H29.0605V34.071H16.9223C16.9531 32.737 17.048 31.4103 17.2081 30.115C17.2717 29.6001 16.9058 29.1311 16.391 29.0675C15.8758 29.0036 15.4071 29.3697 15.3435 29.8845C15.1741 31.2555 15.0742 32.6597 15.0432 34.0709H6.90882C7.07851 29.8359 8.39417 25.7607 10.7405 22.2317C11.0277 21.7996 10.9103 21.2166 10.4783 20.9293C10.0464 20.642 9.46327 20.7595 9.17593 21.1914C6.45085 25.29 5.0105 30.0685 5.0105 35.0104C5.0105 48.7897 16.2207 59.9999 30 59.9999C43.7794 59.9999 54.9896 48.7897 54.9896 35.0104C54.9896 21.2311 43.7794 10.0208 30 10.0208ZM6.91011 35.9498H15.0427C15.1292 39.9091 15.7599 43.7093 16.8754 47.0981H10.3107C8.29632 43.8292 7.07382 40.0237 6.91011 35.9498ZM11.6001 48.9769H17.5613C18.0614 50.2208 18.6311 51.3971 19.2684 52.4896C20.3212 54.2944 21.511 55.7965 22.8013 56.9716C18.3026 55.4934 14.4095 52.6693 11.6001 48.9769ZM29.0605 58.0611C26.0082 57.6719 23.1367 55.3921 20.8913 51.543C20.4201 50.7352 19.988 49.8773 19.5961 48.977H29.0605V58.0611ZM29.0605 47.0981H18.8587C17.6809 43.7559 17.0126 39.9442 16.9219 35.9498H29.0605V47.0981V47.0981ZM53.0899 34.0709H44.9574C44.8709 30.1116 44.2402 26.3115 43.1247 22.9226H49.6895C51.7037 26.1915 52.9262 29.997 53.0899 34.0709ZM48.4 21.0438H42.4388C41.9386 19.7999 41.369 18.6236 40.7316 17.5311C39.6788 15.7263 38.489 14.2241 37.1986 13.0491C41.6975 14.5274 45.5905 17.3515 48.4 21.0438ZM30.9395 11.9597C33.9919 12.3489 36.8633 14.6287 39.1088 18.4778C39.58 19.2857 40.0121 20.1435 40.4039 21.0438H30.9395V11.9597V11.9597ZM30.9395 22.9227H41.1414C42.3191 26.2649 42.9873 30.0763 43.0782 34.071H30.9395V22.9227ZM49.6893 47.0981H48.0372C47.5184 47.0981 47.0977 47.5186 47.0977 48.0375C47.0977 48.5564 47.5183 48.977 48.0372 48.977H48.3996C45.586 52.675 41.6853 55.5022 37.1778 56.9785C38.211 56.0432 39.1804 54.9019 40.0633 53.5661C40.3493 53.1332 40.2304 52.5504 39.7975 52.2644C39.3648 51.9784 38.7818 52.0973 38.4958 52.5302C36.3548 55.7697 33.7015 57.7004 30.9394 58.0591V48.977H36.0127C36.5315 48.977 36.9522 48.5564 36.9522 48.0375C36.9522 47.5188 36.5316 47.0981 36.0127 47.0981H30.9394V35.9498H43.0783C43.0321 37.9628 42.8379 39.9469 42.4981 41.8605C42.4073 42.3714 42.7479 42.859 43.2587 42.9497C43.3144 42.9596 43.3696 42.9644 43.4241 42.9644C43.8709 42.9644 44.2671 42.6443 44.3479 42.1891C44.7067 40.1678 44.9113 38.0732 44.958 35.9498H53.0897C52.9261 40.0237 51.7036 43.8292 49.6893 47.0981Z" fill="#FE4646"/>
<path d="M16.9728 0C11.4819 0 7.01459 4.4673 7.01459 9.95824C7.01459 13.6925 9.43767 16.6725 11.7808 19.5543C13.4938 21.6609 15.2651 23.8393 16.0815 26.2888C16.2094 26.6725 16.5684 26.9311 16.9727 26.9311C17.377 26.9311 17.7361 26.6723 17.8639 26.2888C18.6804 23.8393 20.4517 21.6611 22.1645 19.5544C24.5079 16.6725 26.931 13.6925 26.931 9.95824C26.9311 4.4673 22.4638 0 16.9728 0ZM20.707 18.3689C19.3579 20.028 17.9748 21.729 16.9728 23.6289C15.9709 21.729 14.5877 20.028 13.2386 18.3689C11.0041 15.6209 8.89345 13.025 8.89345 9.95824C8.89345 5.50336 12.5178 1.87887 16.9728 1.87887C21.4278 1.87887 25.0522 5.50324 25.0522 9.95824C25.0522 13.025 22.9415 15.6207 20.707 18.3689Z" fill="#FE4646"/>
<path d="M42.0251 45.094C40.4019 45.094 39.0814 46.4145 39.0814 48.0376C39.0814 49.6608 40.4019 50.9813 42.0251 50.9813C43.6482 50.9813 44.9687 49.6608 44.9687 48.0376C44.9687 46.4145 43.6482 45.094 42.0251 45.094ZM42.0251 49.1023C41.4379 49.1023 40.9603 48.6246 40.9603 48.0375C40.9603 47.4504 41.4379 46.9727 42.0251 46.9727C42.6122 46.9727 43.0898 47.4504 43.0898 48.0375C43.0897 48.6247 42.6122 49.1023 42.0251 49.1023Z" fill="#FE4646"/>
</svg>
