<svg width="63" height="63" viewBox="0 0 63 63" fill="none" xmlns="http://www.w3.org/2000/svg">
<g clip-path="url(#clip0_13_2462)">
<path d="M57.8606 25.3959C57.1886 22.4821 56.0447 19.724 54.4532 17.1799L57.489 12.9415L50.0585 5.51102L45.8201 8.54684C43.2761 6.95522 40.518 5.81138 37.6041 5.13942L36.7529 0H26.2471L25.3959 5.13942C22.4821 5.81138 19.724 6.95535 17.1799 8.54684L12.9415 5.51102L5.51102 12.9415L8.54708 17.1803C7.95387 18.1298 7.41911 19.1156 6.95313 20.118L8.62694 20.8958C9.36854 19.3 10.0372 18.2602 10.7808 17.1291L7.92311 13.1394L13.1394 7.92311L17.1295 10.781L17.659 10.4324C20.3319 8.67271 23.2695 7.45443 26.3902 6.81126L27.0109 6.68329L27.8123 1.8457H35.1877L35.989 6.68341L36.6096 6.81138C39.7305 7.45455 42.6681 8.67284 45.3409 10.4325L45.8704 10.7811L49.8604 7.92323L55.0768 13.1396L52.2189 17.1296L52.5675 17.6591C54.3272 20.332 55.5455 23.2696 56.1886 26.3904L56.3166 27.011L61.1543 27.8123V35.1877L56.3166 35.989L56.1886 36.6096C55.5455 39.7305 54.3272 42.6681 52.5675 45.3409L52.2189 45.8704L55.0768 49.8604L49.8604 55.0768L45.8704 52.2189L45.3409 52.5675C42.668 54.3272 39.7304 55.5455 36.6096 56.1886L35.989 56.3166L35.1877 61.1543H27.8123L27.011 56.3166L26.3904 56.1886C23.2695 55.5455 20.3319 54.3272 17.6591 52.5675L17.1296 52.2189L13.1396 55.0768L7.92323 49.8604L10.7811 45.8704L10.4325 45.3409C8.67284 42.668 7.45455 39.7304 6.81138 36.6096L6.68341 35.989L1.8457 35.1877V27.8123L6.68317 27.011C6.9802 25.5718 7.24648 24.3719 7.88288 22.6697L6.15407 22.0233C5.74469 23.118 5.40434 24.2498 5.13942 25.3958L0 26.2471V36.7529L5.13942 37.6041C5.81138 40.5179 6.95535 43.276 8.54684 45.8201L5.51102 50.0585L12.9415 57.489L17.1799 54.4532C19.7239 56.0448 22.482 57.1886 25.3959 57.8606L26.2471 63H36.7529L37.6041 57.8606C40.5179 57.1886 43.276 56.0447 45.8201 54.4532L50.0585 57.489L57.489 50.0585L54.4532 45.8201C56.0448 43.2761 57.1886 40.518 57.8606 37.6041L63 36.7529V26.2471L57.8606 25.3959Z" fill="#FE4646"/>
<path d="M47.8335 38.3709C48.7503 36.1936 49.215 33.8818 49.215 31.5C49.215 21.7319 41.268 13.7849 31.5 13.7849C21.7319 13.7849 13.7849 21.7319 13.7849 31.5C13.7849 41.268 21.7319 49.215 31.5 49.215C37.8726 49.215 43.783 45.7673 46.9248 40.2172L45.3185 39.3079C42.5037 44.2804 37.2087 47.3693 31.5 47.3693C22.7496 47.3693 15.6306 40.2503 15.6306 31.5C15.6306 22.7496 22.7496 15.6306 31.5 15.6306C40.2503 15.6306 47.3693 22.7496 47.3693 31.5C47.3693 33.6346 46.9532 35.7053 46.1325 37.6548L47.8335 38.3709Z" fill="#FE4646"/>
<path d="M30.9429 42.5566L40.9463 27.5401H34.0666L36.3154 20.4436H28.6092L24.2438 34.3782H29.3209L26.4232 42.5566H30.9429ZM26.7561 32.5325L29.965 22.2893H33.7943L31.5455 29.3858H37.499L29.9546 40.7109H29.0352L31.933 32.5325H26.7561Z" fill="#FE4646"/>
<path d="M50.9162 24.5821C49.3509 20.3104 46.81 16.889 43.0436 14.3368L44.0787 12.8088C48.2382 15.6264 50.9817 19.3955 52.6492 23.9472L50.9162 24.5821ZM41.5409 13.4121C41.0284 13.1268 40.4976 12.8609 39.9631 12.622L40.7167 10.9372C41.3 11.1981 41.8793 11.4882 42.4385 11.7994L41.5409 13.4121ZM38.323 11.973C37.7676 11.7812 37.1988 11.6125 36.6324 11.4715L37.0781 9.68042C37.6972 9.83447 38.3188 10.0188 38.9254 10.2285L38.323 11.973Z" fill="#FE4646"/>
</g>
<defs>
<clipPath id="clip0_13_2462">
<rect width="63" height="63" fill="white"/>
</clipPath>
</defs>
</svg>
