<svg width="56" height="60" viewBox="0 0 56 60" fill="none" xmlns="http://www.w3.org/2000/svg">
<path d="M52.9474 49.281V28.7368C52.9474 22.5181 50.6457 16.5608 46.4662 11.9626C42.5258 7.62702 37.2311 4.83409 31.4738 4.03112V2.23957C31.4738 1.00476 30.469 0 29.2342 0H26.766C25.5311 0 24.5264 1.00476 24.5264 2.23957V4.03112C18.757 4.83585 13.4513 7.63979 9.50983 11.9891C5.34593 16.5835 3.05281 22.5312 3.05281 28.7368V54.3336C1.63379 54.4913 0.526489 55.6973 0.526489 57.1579C0.526489 58.725 1.80137 60 3.36863 60H9.68444C11.2516 60 12.5266 58.7251 12.5266 57.1579C12.5266 55.6975 11.4193 54.4914 10.0003 54.3336V45.9923C14.5438 50.73 20.9332 53.6841 28.0002 53.6841C34.8509 53.6841 41.3043 50.9099 46.0002 46.0102V49.2811C44.5812 49.4387 43.4739 50.6448 43.4739 52.1053C43.4739 53.1329 44.0221 54.0348 44.8413 54.5342L46.0284 59.2825C46.1339 59.7042 46.5129 60.0001 46.9475 60.0001H52.0002C52.4348 60.0001 52.8138 59.7043 52.9193 59.2825L54.1064 54.5342C54.9256 54.0347 55.4738 53.1328 55.4738 52.1052C55.4737 50.6448 54.3664 49.4386 52.9474 49.281ZM31.4738 5.94362C42.7123 7.63006 51.0527 17.238 51.0527 28.7368V49.2631H47.8949V28.7368C47.8949 23.8862 46.1293 19.2136 42.9237 15.5802C39.9314 12.1885 35.8911 9.92447 31.4738 9.14529V5.94362ZM26.4211 2.23957C26.4211 2.04949 26.5758 1.89468 26.766 1.89468H29.2342C29.4244 1.89468 29.5791 2.04937 29.5791 2.23957V17.3394C29.5791 17.5295 29.4244 17.6843 29.2342 17.6843H26.766C26.5759 17.6843 26.4211 17.5296 26.4211 17.3394V2.23957ZM26.766 19.5789H29.2342C30.4691 19.5789 31.4738 18.5742 31.4738 17.3394V16.2601C37.0265 17.7964 40.9474 22.8723 40.9474 28.7368C40.9474 35.8761 35.1393 41.6841 28.0001 41.6841C20.8609 41.6841 15.0528 35.8759 15.0528 28.7368C15.0528 22.8723 18.9738 17.7963 24.5264 16.2601V17.3394C24.5263 18.5742 25.5311 19.5789 26.766 19.5789ZM4.9475 38.27C5.76828 40.2476 6.8362 42.0973 8.11284 43.7808C8.10839 43.8182 8.10534 43.8559 8.10534 43.8946V54.3156H4.9475V38.27ZM10.6317 57.1577C10.6317 57.6802 10.2067 58.1051 9.68432 58.1051H3.36851C2.84609 58.1051 2.42117 57.6802 2.42117 57.1577C2.42117 56.6353 2.84609 56.2104 3.36851 56.2104H9.68432C10.2067 56.2104 10.6317 56.6353 10.6317 57.1577ZM45.874 43.2961C41.4718 48.6938 34.9572 51.7893 28.0001 51.7893C15.2888 51.7893 4.9475 41.448 4.9475 28.7367C4.9475 17.2503 13.2925 7.63159 24.5264 5.94409V9.14529C20.7066 9.819 17.1688 11.6033 14.3469 14.2666C13.9559 14.6355 13.9474 15.2554 14.3275 15.6355C14.6921 16 15.2806 16.0091 15.655 15.6547C18.0671 13.3714 21.1146 11.7402 24.5266 11.0727V14.3042C17.708 15.935 12.8949 22.1734 13.1692 29.3173C13.4724 37.2127 20.0009 43.5271 27.9018 43.5784C36.1308 43.6321 42.8422 36.9535 42.8422 28.7368C42.8422 21.8374 38.1069 15.8906 31.4738 14.3042V11.0728C39.8275 12.707 46 20.1157 46 28.7368C46 38.6621 37.9253 46.7367 28 46.7367C18.0747 46.7367 10 38.6621 10 28.7368C10 24.9038 11.2208 21.3112 13.3102 18.3587C13.5773 17.9812 13.5299 17.4655 13.2031 17.1386L13.2024 17.1379C12.7854 16.721 12.091 16.7768 11.7506 17.2583C9.38784 20.6002 8.10534 24.6037 8.10534 28.7368C8.10534 39.7068 17.0301 48.6314 28 48.6314C35.9433 48.6314 42.8132 43.9513 46 37.2043V43.3989L45.874 43.2961ZM51.2604 58.1052H47.687L46.8975 54.9474H52.0497L51.2604 58.1052ZM52.6316 53.0526H46.3158C45.7934 53.0526 45.3684 52.6276 45.3684 52.1052C45.3684 51.5828 45.7934 51.1579 46.3158 51.1579H52.6316C53.154 51.1579 53.5789 51.5828 53.5789 52.1052C53.5789 52.6276 53.154 53.0526 52.6316 53.0526Z" fill="#FE4646"/>
</svg>
