<svg width="56" height="56" viewBox="0 0 56 56" fill="none" xmlns="http://www.w3.org/2000/svg">
<path d="M27.9998 1.75C23.3609 1.75097 18.8051 2.98096 14.7961 5.31479C10.787 7.64863 7.46791 11.003 5.17651 15.0364C2.88511 19.0699 1.70325 23.6384 1.75123 28.277C1.79921 32.9156 3.07531 37.4588 5.44965 41.4439C5.3301 41.5888 5.26041 41.7683 5.25089 41.9559C5.24138 42.1435 5.29255 42.3292 5.39682 42.4854L6.38775 43.9718L2.17463 46.4997C2.02318 46.5905 1.90276 46.7251 1.82922 46.8857C1.75568 47.0463 1.73245 47.2253 1.76259 47.3994C1.79274 47.5734 1.87484 47.7342 1.9981 47.8607C2.12136 47.9872 2.28002 48.0734 2.45321 48.108L6.08522 48.8344L5.84208 53.3276C5.83349 53.4863 5.86826 53.6443 5.94266 53.7847C6.01706 53.9251 6.12828 54.0426 6.2644 54.1245C6.40051 54.2065 6.55638 54.2499 6.71527 54.25C6.87415 54.2501 7.03007 54.2069 7.16629 54.1251L13.8491 50.111C18.0742 52.8134 22.9848 54.2496 28.0002 54.2496C33.0156 54.2496 37.9262 52.8134 42.1513 50.111L48.8341 54.1251C48.9703 54.2069 49.1262 54.2501 49.2851 54.25C49.444 54.2499 49.5999 54.2065 49.736 54.1245C49.8721 54.0426 49.9833 53.9251 50.0577 53.7847C50.1321 53.6443 50.1669 53.4863 50.1583 53.3276L49.9152 48.8344L53.5472 48.108C53.7204 48.0734 53.879 47.9872 54.0023 47.8607C54.1256 47.7342 54.2077 47.5734 54.2378 47.3994C54.2679 47.2253 54.2447 47.0463 54.1712 46.8857C54.0976 46.7251 53.9772 46.5905 53.8258 46.4997L49.6123 43.9718L50.6032 42.4854C50.7075 42.3291 50.7587 42.1434 50.7492 41.9557C50.7396 41.7681 50.6698 41.5885 50.5502 41.4436C52.9253 37.4586 54.2021 32.9153 54.2504 28.2764C54.2987 23.6375 53.117 19.0686 50.8254 15.0349C48.5338 11.0012 45.2143 7.64683 41.2048 5.31322C37.1953 2.97961 32.639 1.75015 27.9998 1.75V1.75ZM9.88393 41.1662C15.5376 38.4525 21.7286 37.0437 27.9998 37.0437C34.271 37.0437 40.4621 38.4525 46.1157 41.1662L48.5876 42.353L46.0629 46.1401C40.3908 43.5589 34.2314 42.2234 27.9996 42.2234C21.7678 42.2234 15.6084 43.5589 9.93632 46.1401L7.41172 42.353L9.88393 41.1662ZM27.9998 35.2937C23.0568 35.3006 18.1506 36.1423 13.4879 37.7834C11.5319 34.8964 10.4907 31.4872 10.4998 28C10.4998 18.3504 18.3502 10.5 27.9998 10.5C37.6494 10.5 45.4998 18.3504 45.4998 28C45.5082 31.4871 44.4668 34.896 42.5111 37.7832C37.8487 36.1423 32.9426 35.3006 27.9998 35.2937V35.2937ZM34.0559 44.4198C30.1468 45.8601 25.8525 45.8601 21.9434 44.4198C25.959 43.8245 30.0403 43.8245 34.0559 44.4198V44.4198ZM7.6786 51.776L7.8735 48.1724C7.8849 47.9622 7.8202 47.7551 7.69126 47.5888C7.56231 47.4225 7.37776 47.3082 7.17143 47.267L5.01575 46.8359L7.35966 45.4296L8.89682 47.7354C9.01351 47.9104 9.18935 48.0375 9.39212 48.0935C9.59489 48.1494 9.81104 48.1304 10.001 48.04C10.5866 47.7611 11.1792 47.4963 11.7786 47.2456L12.763 48.7222L7.6786 51.776ZM14.7963 48.6403C14.7769 48.5966 14.754 48.5546 14.7278 48.5146L13.4442 46.5896C15.2316 45.9291 17.0616 45.3903 18.9217 44.9769C21.7149 46.4693 24.8329 47.2501 27.9998 47.2501C31.1667 47.2501 34.2848 46.4693 37.0779 44.9769C38.9381 45.39 40.7681 45.9287 42.5555 46.589L41.2719 48.514C41.2457 48.554 41.2229 48.5959 41.2036 48.6396C37.261 51.1601 32.6794 52.4994 28 52.4994C23.3206 52.4994 18.739 51.1601 14.7964 48.6396L14.7963 48.6403ZM50.9839 46.8356L48.8282 47.2666C48.6219 47.3079 48.4373 47.4222 48.3084 47.5884C48.1794 47.7547 48.1147 47.9619 48.1261 48.172L48.321 51.7757L43.2367 48.7222L44.2211 47.2456C44.82 47.4969 45.4125 47.7617 45.9988 48.04C46.1888 48.1306 46.405 48.1497 46.6079 48.0937C46.8108 48.0378 46.9868 47.9105 47.1035 47.7354L48.6406 45.4296L50.9839 46.8356ZM49.0078 40.613L46.873 39.5883C45.9938 39.1663 45.1001 38.7746 44.192 38.413C46.1963 35.3105 47.2584 31.6936 47.2498 28C47.2498 17.3855 38.6143 8.75 27.9998 8.75C17.3853 8.75 8.74982 17.3855 8.74982 28C8.7402 31.6938 9.80207 35.3112 11.8067 38.4137C10.8999 38.7753 10.0067 39.1669 9.12705 39.5886L6.99282 40.613C4.76185 36.8953 3.55741 32.6521 3.50249 28.3168C3.44757 23.9814 4.54413 19.7091 6.68022 15.936C8.8163 12.163 11.9154 9.02442 15.661 6.84072C19.4067 4.65702 23.6648 3.50643 28.0005 3.50643C32.3363 3.50643 36.5943 4.65702 40.34 6.84072C44.0857 9.02442 47.1848 12.163 49.3208 15.936C51.4569 19.7091 52.5535 23.9814 52.4986 28.3168C52.4436 32.6521 51.2392 36.8953 49.0082 40.613H49.0078Z" fill="#FE4646"/>
<path d="M36.3125 21H31.5C31.268 20.9997 31.0456 20.9075 30.8816 20.7434C30.7175 20.5794 30.6253 20.357 30.625 20.125V17.5C30.6242 16.8041 30.3474 16.1368 29.8553 15.6447C29.3631 15.1526 28.6959 14.8758 28 14.875H26.25C26.0179 14.875 25.7954 14.9672 25.6313 15.1313C25.4672 15.2954 25.375 15.5179 25.375 15.75V17.6786C25.3768 18.3396 25.2475 18.9944 24.9945 19.605C24.7416 20.2157 24.37 20.7701 23.9013 21.2361L23.2625 21.875H18.375C18.1429 21.875 17.9204 21.9672 17.7563 22.1313C17.5922 22.2954 17.5 22.5179 17.5 22.75V32.375C17.5 32.6071 17.5922 32.8296 17.7563 32.9937C17.9204 33.1578 18.1429 33.25 18.375 33.25H33.6875C34.0418 33.2501 34.3909 33.1641 34.7046 32.9994C35.0184 32.8348 35.2874 32.5964 35.4886 32.3047C35.6898 32.013 35.8172 31.6769 35.8597 31.3251C35.9023 30.9733 35.8587 30.6165 35.7328 30.2853C36.159 30.0157 36.4789 29.6072 36.6383 29.1288C36.7978 28.6504 36.787 28.1316 36.6078 27.6603C37.034 27.3907 37.3539 26.9822 37.5133 26.5038C37.6728 26.0254 37.662 25.5066 37.4828 25.0353C37.883 24.7817 38.1901 24.405 38.3578 23.9619C38.5255 23.5188 38.5449 23.0332 38.4129 22.5782C38.2809 22.1232 38.0048 21.7233 37.626 21.4387C37.2472 21.154 36.7863 21.0001 36.3125 21V21ZM19.25 23.625H22.75V31.5H19.25V23.625ZM36.3125 23.625H35.4375C35.2054 23.625 34.9829 23.7172 34.8188 23.8813C34.6547 24.0454 34.5625 24.2679 34.5625 24.5C34.5625 24.7321 34.6547 24.9546 34.8188 25.1187C34.9829 25.2828 35.2054 25.375 35.4375 25.375C35.5535 25.375 35.6648 25.4211 35.7469 25.5031C35.8289 25.5852 35.875 25.6965 35.875 25.8125C35.875 25.9285 35.8289 26.0398 35.7469 26.1219C35.6648 26.2039 35.5535 26.25 35.4375 26.25H34.5625C34.3304 26.25 34.1079 26.3422 33.9438 26.5063C33.7797 26.6704 33.6875 26.8929 33.6875 27.125C33.6875 27.3571 33.7797 27.5796 33.9438 27.7437C34.1079 27.9078 34.3304 28 34.5625 28C34.6785 28 34.7898 28.0461 34.8719 28.1281C34.9539 28.2102 35 28.3215 35 28.4375C35 28.5535 34.9539 28.6648 34.8719 28.7469C34.7898 28.8289 34.6785 28.875 34.5625 28.875H33.6875C33.4554 28.875 33.2329 28.9672 33.0688 29.1313C32.9047 29.2954 32.8125 29.5179 32.8125 29.75C32.8125 29.9821 32.9047 30.2046 33.0688 30.3687C33.2329 30.5328 33.4554 30.625 33.6875 30.625C33.8035 30.625 33.9148 30.6711 33.9969 30.7531C34.0789 30.8352 34.125 30.9465 34.125 31.0625C34.125 31.1785 34.0789 31.2898 33.9969 31.3719C33.9148 31.4539 33.8035 31.5 33.6875 31.5H24.5V23.1124L25.1389 22.4737C25.7705 21.8455 26.2713 21.0982 26.6122 20.2751C26.9531 19.452 27.1274 18.5695 27.125 17.6786V16.625H28C28.232 16.6253 28.4544 16.7175 28.6184 16.8816C28.7825 17.0456 28.8747 17.268 28.875 17.5V20.125C28.8758 20.8209 29.1526 21.4882 29.6447 21.9803C30.1368 22.4724 30.8041 22.7492 31.5 22.75H36.3125C36.4285 22.75 36.5398 22.7961 36.6219 22.8781C36.7039 22.9602 36.75 23.0715 36.75 23.1875C36.75 23.3035 36.7039 23.4148 36.6219 23.4969C36.5398 23.5789 36.4285 23.625 36.3125 23.625Z" fill="#FE4646"/>
<path d="M26.1852 39.3968L26.9946 39.9849L26.6854 40.9365C26.6639 41.0024 26.6639 41.0734 26.6853 41.1394C26.7067 41.2053 26.7484 41.2628 26.8045 41.3035C26.8605 41.3443 26.9281 41.3662 26.9974 41.3662C27.0667 41.3662 27.1343 41.3442 27.1903 41.3034L27.9997 40.7153L28.8091 41.3034C28.8652 41.3442 28.9327 41.3662 29.002 41.3662C29.0713 41.3662 29.1389 41.3443 29.195 41.3035C29.251 41.2628 29.2928 41.2053 29.3142 41.1394C29.3356 41.0734 29.3355 41.0024 29.3141 40.9365L29.0049 39.9849L29.8142 39.3968C29.8703 39.3561 29.912 39.2987 29.9334 39.2328C29.9548 39.1669 29.9549 39.0959 29.9334 39.03C29.912 38.9641 29.8703 38.9067 29.8143 38.8659C29.7582 38.8252 29.6907 38.8032 29.6214 38.8032H28.621L28.3118 37.8517C28.2903 37.7858 28.2486 37.7284 28.1926 37.6876C28.1365 37.6469 28.069 37.625 27.9997 37.625C27.9304 37.625 27.8629 37.6469 27.8069 37.6876C27.7508 37.7284 27.7091 37.7858 27.6877 37.8517L27.3785 38.8032H26.378C26.3087 38.8032 26.2412 38.8252 26.1852 38.8659C26.1291 38.9067 26.0874 38.9641 26.066 39.03C26.0446 39.0959 26.0446 39.1669 26.066 39.2328C26.0874 39.2987 26.1291 39.3561 26.1852 39.3968V39.3968Z" fill="#FE4646"/>
<path d="M21.1359 40.0293L21.9452 40.6174L21.636 41.569C21.6146 41.6349 21.6145 41.7059 21.6359 41.7718C21.6573 41.8378 21.6991 41.8952 21.7552 41.936C21.8112 41.9767 21.8788 41.9987 21.9481 41.9987C22.0174 41.9987 22.085 41.9767 22.141 41.9359L22.9504 41.3478L23.7598 41.9359C23.8158 41.9767 23.8834 41.9987 23.9527 41.9987C24.022 41.9987 24.0896 41.9767 24.1456 41.936C24.2017 41.8952 24.2434 41.8378 24.2648 41.7718C24.2862 41.7059 24.2862 41.6349 24.2647 41.569L23.9555 40.6174L24.7649 40.0293C24.821 39.9886 24.8627 39.9311 24.8841 39.8653C24.9055 39.7994 24.9055 39.7284 24.8841 39.6625C24.8627 39.5966 24.821 39.5391 24.7649 39.4984C24.7089 39.4577 24.6414 39.4357 24.5721 39.4357H23.5715L23.2624 38.4842C23.241 38.4182 23.1993 38.3608 23.1433 38.32C23.0872 38.2793 23.0196 38.2573 22.9503 38.2573C22.881 38.2573 22.8135 38.2793 22.7574 38.32C22.7014 38.3608 22.6596 38.4182 22.6382 38.4842L22.3291 39.4357H21.3287C21.2594 39.4357 21.1919 39.4577 21.1358 39.4984C21.0798 39.5391 21.0381 39.5966 21.0167 39.6625C20.9953 39.7284 20.9953 39.7994 21.0167 39.8653C21.0381 39.9311 21.0798 39.9886 21.1359 40.0293V40.0293Z" fill="#FE4646"/>
<path d="M31.2347 40.0293L32.0441 40.6174L31.7349 41.569C31.7134 41.6349 31.7134 41.7059 31.7348 41.7718C31.7562 41.8378 31.798 41.8952 31.854 41.936C31.9101 41.9767 31.9777 41.9987 32.047 41.9987C32.1163 41.9987 32.1838 41.9767 32.2399 41.9359L33.0493 41.3478L33.8586 41.9359C33.9147 41.9767 33.9822 41.9987 34.0516 41.9987C34.1209 41.9987 34.1884 41.9767 34.2445 41.936C34.3006 41.8952 34.3423 41.8378 34.3637 41.7718C34.3851 41.7059 34.3851 41.6349 34.3636 41.569L34.0544 40.6174L34.8638 40.0293C34.9199 39.9886 34.9616 39.9311 34.983 39.8652C35.0044 39.7993 35.0044 39.7283 34.983 39.6624C34.9616 39.5965 34.9198 39.5391 34.8638 39.4984C34.8077 39.4576 34.7402 39.4357 34.6709 39.4357H33.6704L33.3613 38.4842C33.3399 38.4182 33.2982 38.3608 33.2421 38.32C33.1861 38.2793 33.1185 38.2573 33.0492 38.2573C32.9799 38.2573 32.9124 38.2793 32.8563 38.32C32.8002 38.3608 32.7585 38.4182 32.7371 38.4842L32.428 39.4357H31.4276C31.3583 39.4357 31.2908 39.4577 31.2347 39.4984C31.1787 39.5391 31.1369 39.5966 31.1155 39.6625C31.0941 39.7284 31.0941 39.7994 31.1155 39.8653C31.137 39.9311 31.1787 39.9886 31.2347 40.0293V40.0293Z" fill="#FE4646"/>
</svg>
