<svg width="64" height="64" viewBox="0 0 64 64" fill="none" xmlns="http://www.w3.org/2000/svg">
<path d="M43.5069 15.4409C43.2813 15.2085 42.9571 15.104 42.6338 15.1489L30.9562 16.979C30.82 17.0005 30.6945 17.0486 30.5842 17.1171L21.42 15.1596C21.0851 15.0844 20.7334 15.1938 20.4932 15.4409L8.48635 27.8296C7.61725 28.727 7.33305 30.018 7.74615 31.1997L9.47465 36.1401C9.78225 37.019 10.3087 37.8149 10.9972 38.4419L12.6727 39.9681C12.3954 40.6388 11.7442 42.5269 12.2374 44.5512C13.5284 49.8491 16.8302 53.0883 22.628 54.7456C23.7609 55.0698 24.9522 55.1753 26.0236 55.1753C27.4048 55.1753 28.5749 55.001 29.1684 54.894C30.0967 55.5228 31.176 55.8686 32.2872 55.8686C32.7638 55.8686 33.2443 55.8081 33.7188 55.6841C40.2271 53.9596 44.5068 49.7343 46.4627 43.1375C46.6969 43.0986 46.9222 42.9989 47.083 42.7993L52.2051 36.4165C52.2862 36.3149 52.3633 36.2114 52.4365 36.1059L55.5264 31.6528C56.419 30.3676 56.2764 28.6186 55.1875 27.4926L43.5069 15.4409ZM23.1779 52.8227C18.0742 51.3637 15.2989 48.6665 14.1808 44.0786C13.9393 43.0875 14.1007 42.1103 14.2859 41.4377L27.1247 53.133C25.975 53.2159 24.5037 53.202 23.1779 52.8227ZM44.7217 41.977C44.4613 42.9506 44.1455 43.8585 43.7857 44.7157L33.5244 35.5942C33.1114 35.2251 32.4795 35.2622 32.1133 35.6772C31.7462 36.0893 31.7833 36.7221 32.1964 37.0883L42.6944 46.4204C42.7553 46.4747 42.8268 46.5053 42.8957 46.542C42.3742 47.4665 41.7804 48.3094 41.1119 49.071L30.0303 39.0981C29.6201 38.7299 28.9883 38.7622 28.6182 39.1723C28.2491 39.5825 28.2822 40.2153 28.6924 40.5844L39.6867 50.4788C38.9351 51.1209 38.1129 51.6883 37.2158 52.1783C37.1635 52.0875 37.1072 51.9976 37.0244 51.9243L26.5264 42.5932C26.1133 42.2251 25.4825 42.2622 25.1154 42.6762C24.7481 43.0883 24.7852 43.7212 25.1984 44.0874L35.3023 53.0682C34.6375 53.3278 33.9412 53.5559 33.21 53.7495C32.0196 54.063 30.7726 53.7524 29.8663 52.9253L12.3439 36.9633C11.9005 36.5591 11.5607 36.0464 11.3634 35.4799L9.63385 30.5395C9.47175 30.0776 9.58305 29.5717 9.92295 29.2212L21.5441 17.2309L32.5919 19.5903C33.2648 19.7339 33.882 20.0639 34.377 20.5434L37.8145 23.8755C38.4854 24.5258 38.8203 25.4311 38.7344 26.3608C38.6494 27.2885 38.1543 28.1176 37.377 28.6342L36.5244 29.2007C33.8702 26.8208 31.7511 24.9253 31.7511 24.9253C31.34 24.5581 30.712 24.5903 30.3428 24.9995C29.9738 25.4067 30.003 26.0356 30.4083 26.4077L35.6847 31.2466C35.792 31.3442 35.916 31.4155 36.048 31.4594C38.7061 33.8432 41.709 36.5385 43.626 38.2719C44.669 39.2046 45.0889 40.6235 44.7217 41.977ZM53.8838 30.5122L50.793 34.9663C50.7442 35.0376 50.6924 35.1059 50.6416 35.1694L46.7579 40.0081C46.5402 38.7864 45.9291 37.6487 44.9639 36.7846C43.208 35.1987 40.542 32.8032 38.0625 30.5796L38.4834 30.3012C39.7686 29.4467 40.5861 28.0766 40.7266 26.5434C40.8682 25.0083 40.3145 23.5132 39.2071 22.4399L35.7687 19.1069C35.4861 18.8331 35.1707 18.6028 34.8419 18.3952L42.4317 17.2055L53.751 28.8842C54.1768 29.3247 54.2324 30.0092 53.8838 30.5122Z" fill="#FE4646"/>
<path d="M19.5069 13.2387L14.6992 8.42435C14.5117 8.23685 14.2569 8.13135 13.9922 8.13135C13.9912 8.13135 13.9912 8.13135 13.9912 8.13135C13.7266 8.13135 13.4717 8.23685 13.2842 8.42335L0.4942 21.1958C0.1035 21.5864 0.1035 22.2192 0.4932 22.6108L5.3008 27.4253C5.4883 27.6128 5.7432 27.7182 6.0078 27.7182C6.0088 27.7182 6.0088 27.7182 6.0088 27.7182C6.2735 27.7182 6.5283 27.6128 6.7158 27.4262L19.5059 14.6538C19.8965 14.2632 19.8965 13.6303 19.5069 13.2387ZM6.0098 25.3042L2.6153 21.9048L13.9903 10.5454L17.3848 13.9448L6.0098 25.3042Z" fill="#FE4646"/>
<path d="M63.5059 21.1958L50.7158 8.42335C50.5283 8.23685 50.2735 8.13135 50.0088 8.13135H50.0078C49.7432 8.13135 49.4883 8.23685 49.3008 8.42435L44.4932 13.2387C44.1035 13.6303 44.1035 14.2632 44.4942 14.6538L57.2842 27.4262C57.4717 27.6128 57.7266 27.7182 57.9912 27.7182H57.9922C58.2569 27.7182 58.5117 27.6128 58.6992 27.4253L63.5069 22.6108C63.8965 22.2192 63.8965 21.5864 63.5059 21.1958ZM57.9903 25.3042L46.6153 13.9448L50.0098 10.5454L61.3848 21.9048L57.9903 25.3042Z" fill="#FE4646"/>
</svg>
