<svg width="53" height="53" viewBox="0 0 53 53" fill="none" xmlns="http://www.w3.org/2000/svg">
<path d="M26.5 0.387817C12.1043 0.387817 0.393188 12.0531 0.393188 26.3895C0.393188 40.7259 12.1043 52.3993 26.5 52.3993C40.8956 52.3993 52.6068 40.7339 52.6068 26.3962C52.6068 12.0585 40.8956 0.387817 26.5 0.387817ZM26.5 50.2363C13.293 50.2363 2.54944 39.5386 2.54944 26.3895C2.54944 13.2404 13.293 2.54407 26.5 2.54407C39.707 2.54407 50.4505 13.2418 50.4505 26.3895C50.4505 39.5372 39.707 50.2363 26.5 50.2363ZM43.6934 36.2746C43.55 36.5207 43.315 36.7002 43.0398 36.7737C42.7646 36.8471 42.4714 36.8087 42.2244 36.6667L39.5291 35.1156C39.2812 34.9726 39.1003 34.737 39.0261 34.4607C38.952 34.1843 38.9906 33.8898 39.1336 33.6419C39.2766 33.394 39.5121 33.2131 39.7885 33.1389C40.0649 33.0648 40.3594 33.1034 40.6072 33.2464L42.3471 34.245C43.3989 32.1308 44.0136 29.8262 44.1543 27.469H42.1571C41.8711 27.469 41.5969 27.3554 41.3947 27.1532C41.1925 26.951 41.0789 26.6768 41.0789 26.3908C41.0789 26.1049 41.1925 25.8307 41.3947 25.6285C41.5969 25.4263 41.8711 25.3127 42.1571 25.3127H44.1543C44.0115 22.9517 43.3897 20.6444 42.3269 18.5313L40.5924 19.5286C40.4287 19.6237 40.2427 19.6734 40.0534 19.6728C39.8155 19.6734 39.5841 19.5953 39.3953 19.4508C39.2064 19.3062 39.0707 19.1032 39.0091 18.8735C38.9476 18.6437 38.9638 18.4001 39.0552 18.1805C39.1466 17.9609 39.308 17.7777 39.5143 17.6594L41.2393 16.6689C39.9244 14.6987 38.2291 13.0112 36.253 11.7054L35.2597 13.4277C35.1106 13.6624 34.8765 13.8304 34.6064 13.8965C34.3363 13.9627 34.0511 13.9219 33.8104 13.7828C33.5696 13.6436 33.3919 13.4168 33.3145 13.1497C33.237 12.8827 33.2657 12.596 33.3946 12.3496L34.3905 10.6314C32.2657 9.57104 29.9485 8.95128 27.5781 8.80932V10.7985C27.5781 11.0844 27.4645 11.3586 27.2623 11.5608C27.0601 11.763 26.7859 11.8766 26.5 11.8766C26.214 11.8766 25.9398 11.763 25.7376 11.5608C25.5354 11.3586 25.4219 11.0844 25.4219 10.7985V8.80932C23.0512 8.95026 20.7335 9.5691 18.6081 10.6287L19.604 12.3496C19.684 12.4723 19.7382 12.6099 19.7632 12.7542C19.7883 12.8985 19.7836 13.0463 19.7497 13.1888C19.7157 13.3312 19.653 13.4652 19.5655 13.5827C19.478 13.7001 19.3676 13.7985 19.2408 13.8718C19.1141 13.9451 18.9737 13.9918 18.8283 14.0091C18.6829 14.0264 18.5355 14.0139 18.395 13.9724C18.2546 13.9308 18.1242 13.8611 18.0116 13.7675C17.899 13.6738 17.8067 13.5582 17.7402 13.4277L16.7416 11.7054C14.7658 13.0111 13.0705 14.6981 11.7553 16.6675L13.4803 17.6594C13.603 17.7302 13.7106 17.8244 13.7969 17.9368C13.8832 18.0492 13.9465 18.1774 13.9833 18.3143C14.02 18.4511 14.0294 18.5939 14.011 18.7343C13.9925 18.8748 13.9466 19.0103 13.8758 19.133C13.805 19.2558 13.7108 19.3634 13.5984 19.4497C13.486 19.536 13.3577 19.5993 13.2209 19.636C13.0841 19.6727 12.9413 19.6822 12.8008 19.6637C12.6604 19.6453 12.5249 19.5994 12.4022 19.5286L10.6664 18.5313C9.606 20.6445 8.98655 22.9513 8.84569 25.3114H10.8483C11.1342 25.3114 11.4085 25.425 11.6107 25.6271C11.8128 25.8293 11.9264 26.1036 11.9264 26.3895C11.9264 26.6754 11.8128 26.9497 11.6107 27.1518C11.4085 27.354 11.1342 27.4676 10.8483 27.4676H8.84569C8.99055 29.8283 9.61074 32.1353 10.6691 34.2504L12.4075 33.2518C12.5303 33.181 12.6658 33.135 12.8062 33.1166C12.9467 33.0982 13.0894 33.1076 13.2263 33.1443C13.3631 33.1811 13.4914 33.2444 13.6038 33.3307C13.7161 33.417 13.8104 33.5246 13.8812 33.6473C13.952 33.77 13.9979 33.9055 14.0164 34.046C14.0348 34.1865 14.0254 34.3292 13.9886 34.466C13.9519 34.6029 13.8886 34.7312 13.8023 34.8435C13.716 34.9559 13.6084 35.0502 13.4857 35.121L10.7904 36.6721C10.5435 36.8137 10.2507 36.8519 9.97576 36.7784C9.70084 36.7049 9.46611 36.5258 9.32276 36.2799C7.5917 33.2925 6.67572 29.9028 6.66653 26.4501C6.66653 26.4313 6.66653 26.4138 6.66653 26.3949C6.66653 26.376 6.66653 26.3625 6.66653 26.3464C6.66408 22.9302 7.55467 19.5727 9.24998 16.6069C9.26516 16.5722 9.28226 16.5385 9.3012 16.5058C9.32265 16.4688 9.34651 16.4332 9.37262 16.3993C11.0983 13.4802 13.5393 11.0489 16.4653 9.33491C16.4976 9.31044 16.5314 9.28794 16.5664 9.26752C16.6014 9.24768 16.6374 9.22969 16.6742 9.21362C19.652 7.51745 23.0191 6.62354 26.4461 6.61938H26.5431C29.9701 6.62354 33.3372 7.51745 36.315 9.21362C36.3518 9.22969 36.3878 9.24768 36.4228 9.26752C36.4578 9.28794 36.4915 9.31044 36.5238 9.33491C39.4502 11.0485 41.8913 13.4798 43.6166 16.3993C43.6427 16.4332 43.6665 16.4688 43.688 16.5058C43.7069 16.5395 43.7244 16.5732 43.7392 16.6069C45.4411 19.569 46.3392 22.9247 46.3442 26.341C46.3442 26.3572 46.3442 26.3733 46.3442 26.3908C46.3442 26.4084 46.3442 26.4259 46.3442 26.4447C46.335 29.8964 45.4195 33.2851 43.6893 36.2719L43.6934 36.2746ZM30.7114 26.3868C30.7083 25.7416 30.557 25.1058 30.2691 24.5284C29.9812 23.951 29.5644 23.4475 29.051 23.0568C28.5376 22.666 27.9413 22.3985 27.308 22.2749C26.6748 22.1513 26.0216 22.1749 25.3989 22.3438L21.6848 15.9371C21.6174 15.8082 21.5246 15.6944 21.4121 15.6023C21.2995 15.5102 21.1695 15.4419 21.0299 15.4014C20.8902 15.3609 20.7438 15.349 20.5995 15.3666C20.4551 15.3841 20.3158 15.4306 20.19 15.5034C20.0641 15.5762 19.9542 15.6737 19.867 15.79C19.7797 15.9063 19.7169 16.0391 19.6823 16.1803C19.6477 16.3215 19.6421 16.4683 19.6657 16.6118C19.6893 16.7553 19.7416 16.8925 19.8197 17.0152L23.5351 23.4206C22.946 24.0062 22.5442 24.7538 22.3808 25.5682C22.2175 26.3827 22.2999 27.2274 22.6177 27.9949C22.9354 28.7624 23.4741 29.4182 24.1654 29.8788C24.8567 30.3395 25.6693 30.5843 26.5 30.5821C26.8709 30.5817 27.2401 30.5328 27.5983 30.4365L28.3099 31.6656C28.4591 31.9002 28.6931 32.0682 28.9632 32.1343C29.2333 32.2005 29.5185 32.1597 29.7593 32.0206C30 31.8814 30.1777 31.6546 30.2552 31.3876C30.3326 31.1205 30.3039 30.8338 30.175 30.5874L29.4648 29.3597C29.8584 28.9709 30.1711 28.508 30.3851 27.9978C30.599 27.4876 30.7099 26.9401 30.7114 26.3868ZM24.4542 26.3868C24.4555 26.0292 24.5507 25.6781 24.7302 25.3688C24.9097 25.0594 25.1672 24.8026 25.4771 24.6241C25.8658 24.4017 26.3169 24.3136 26.7606 24.3737C27.2044 24.4337 27.6159 24.6384 27.9315 24.9561C28.2471 25.2737 28.4491 25.6866 28.5062 26.1308C28.5633 26.5749 28.4723 27.0254 28.2474 27.4126C28.0224 27.7998 27.676 28.1019 27.2619 28.2723C26.8478 28.4426 26.389 28.4716 25.9568 28.3547C25.5245 28.2378 25.1429 27.9817 24.871 27.6259C24.5991 27.2701 24.4521 26.8346 24.4529 26.3868H24.4542ZM32.7571 37.7745H20.2428C19.9569 37.7745 19.6827 37.8881 19.4805 38.0903C19.2783 38.2925 19.1647 38.5667 19.1647 38.8526V45.0828C19.1647 45.3688 19.2783 45.643 19.4805 45.8452C19.6827 46.0474 19.9569 46.161 20.2428 46.161H32.7571C33.0431 46.161 33.3173 46.0474 33.5195 45.8452C33.7217 45.643 33.8353 45.3688 33.8353 45.0828V38.8526C33.8353 38.5667 33.7217 38.2925 33.5195 38.0903C33.3173 37.8881 33.0431 37.7745 32.7571 37.7745ZM31.679 44.0047H21.3209V39.9307H31.679V44.0047Z" fill="#FE4646"/>
</svg>
