<svg width="54" height="54" fill="none" xmlns="http://www.w3.org/2000/svg"><g clip-path="url(#clip0_13_2194)" fill="#FE4646"><path d="M27 21.6a4.268 4.268 0 00-4.263 4.263A4.268 4.268 0 0027 30.126a4.268 4.268 0 004.263-4.263A4.268 4.268 0 0027 21.6zm0 6.82a2.56 2.56 0 01-2.558-2.557A2.56 2.56 0 0127 23.305a2.56 2.56 0 012.558 2.558A2.561 2.561 0 0127 28.421z"/><path d="M49.453 44.353v-18.49a22.399 22.399 0 00-5.833-15.097 22.398 22.398 0 00-13.494-7.138V2.016A2.018 2.018 0 0028.111 0h-2.222a2.018 2.018 0 00-2.015 2.016v1.612a22.4 22.4 0 00-13.515 7.162 22.402 22.402 0 00-5.812 15.073V48.9a2.561 2.561 0 00-2.273 2.542A2.56 2.56 0 004.832 54h5.684a2.56 2.56 0 002.558-2.558c0-1.314-.997-2.4-2.274-2.542v-7.507c4.09 4.264 9.84 6.923 16.2 6.923a22.365 22.365 0 0016.2-6.907v2.944a2.559 2.559 0 00-1.043 4.728l1.068 4.273c.096.38.437.646.828.646H48.6a.853.853 0 00.827-.646l1.069-4.273a2.56 2.56 0 001.23-2.186 2.56 2.56 0 00-2.273-2.542zM30.126 5.349c10.115 1.518 17.621 10.165 17.621 20.514v18.474h-2.842V25.863c0-4.366-1.589-8.57-4.474-11.84A17.895 17.895 0 0030.126 8.23V5.349zM25.58 2.016c0-.171.14-.31.31-.31h2.222c.17 0 .31.138.31.31v13.59a.31.31 0 01-.31.31H25.89a.31.31 0 01-.31-.31V2.015zm.31 15.605h2.222a2.018 2.018 0 002.015-2.016v-.97a11.646 11.646 0 018.527 11.228c0 6.425-5.228 11.653-11.653 11.653-6.425 0-11.652-5.228-11.652-11.653 0-5.278 3.528-9.846 8.526-11.229v.971c0 1.112.904 2.016 2.015 2.016zM6.253 34.443c.738 1.78 1.7 3.445 2.849 4.96a.862.862 0 00-.007.102v9.379H6.253V34.443zm5.115 16.999c0 .47-.382.853-.852.853H4.832a.854.854 0 010-1.706h5.684c.47 0 .852.383.852.853zm31.719-12.475A20.68 20.68 0 0127 46.61c-11.44 0-20.747-9.307-20.747-20.747 0-10.338 7.51-18.995 17.62-20.513v2.88a17.877 17.877 0 00-9.16 4.61.86.86 0 001.177 1.25 16.106 16.106 0 017.984-4.125v2.909a13.351 13.351 0 00-10.222 13.512c.273 7.105 6.149 12.788 13.26 12.835 7.406.048 13.446-5.963 13.446-13.358a13.35 13.35 0 00-10.232-12.99V9.967c7.519 1.47 13.074 8.138 13.074 15.897 0 8.933-7.267 16.2-16.2 16.2s-16.2-7.267-16.2-16.2c0-3.45 1.099-6.683 2.98-9.34a.858.858 0 00-1.404-.99 17.885 17.885 0 00-3.281 10.33c0 9.873 8.032 17.905 17.905 17.905 7.149 0 13.332-4.212 16.2-10.284v5.575l-.114-.092zm4.847 13.328h-3.216l-.71-2.842h4.637l-.71 2.842zm1.234-4.548h-5.684a.854.854 0 010-1.705h5.684a.853.853 0 010 1.705z"/></g><defs><clipPath id="clip0_13_2194"><path fill="#fff" d="M0 0h54v54H0z"/></clipPath></defs></svg>