<svg width="51" height="51" fill="none" xmlns="http://www.w3.org/2000/svg"><g clip-path="url(#clip0_13_2229)" fill="#FE4646"><path d="M5.724 38.51H3.643v2.082h2.081V38.51zm5.725 0H7.286v2.082h4.163V38.51zm14.051 0h-2.08v2.082h2.08V38.51zm5.725 0H27.06v2.082h4.164V38.51z"/><path d="M51 16.133a4.17 4.17 0 00-3.123-4.032V8.847c0-1.32-.445-2.583-1.253-3.555-.884-1.064-2.102-1.65-3.43-1.65h-8.327v-2.6A1.04 1.04 0 0033.827 0h-5.204a1.04 1.04 0 00-1.041 1.04v2.603H14.05V1.04A1.04 1.04 0 0013.011 0H7.805a1.04 1.04 0 00-1.04 1.04v2.603H4.683V2.082H2.602v5.204h2.082V5.724h2.081v1.71c-3.633.695-6.467 3.765-6.73 7.561a5.385 5.385 0 00-.035.617v27.061C0 47.265 3.735 51 8.327 51h5.204a8.332 8.332 0 007.285-4.301A8.332 8.332 0 0028.102 51h5.204c4.591 0 8.327-3.735 8.327-8.327v-27.06c0-4.058-2.918-7.445-6.766-8.178v-1.71h8.327c1.607 0 2.602 1.62 2.602 3.122V12.1a4.17 4.17 0 00-3.123 4.032 4.17 4.17 0 003.123 4.031v4.384l-1.777 1.777 1.472 1.472 1.346-1.345 1.345 1.345 1.472-1.472-1.777-1.777v-4.384A4.17 4.17 0 0051 16.133zM29.663 2.082h3.123v5.204h-3.123V2.082zm-20.816 0h3.122v5.204H8.847V2.082zm10.929 40.591a6.252 6.252 0 01-6.245 6.245H8.327a6.252 6.252 0 01-6.245-6.245V36.95h17.694v5.724zm0-7.806H2.082v-13.53h17.694v13.53zm0-15.612H2.082v-3.122h7.806V14.05H2.287a6.243 6.243 0 016.04-4.684h5.203a6.252 6.252 0 016.245 6.245v3.643zM14.05 7.304v-1.58h13.53v1.58a8.34 8.34 0 00-6.764 4.284 8.336 8.336 0 00-6.766-4.284zm25.5 35.37a6.252 6.252 0 01-6.245 6.244h-5.204a6.252 6.252 0 01-6.245-6.245V36.95H39.55v5.724zm0-7.807H21.857v-13.53h17.694v13.53zm0-19.255v3.643H21.857v-3.122h7.806V14.05h-7.6a6.243 6.243 0 016.039-4.684h5.204a6.252 6.252 0 016.245 6.245zm7.286 2.602a2.084 2.084 0 01-2.082-2.081c0-1.148.934-2.082 2.082-2.082 1.147 0 2.081.934 2.081 2.082a2.084 2.084 0 01-2.081 2.081z"/></g><defs><clipPath id="clip0_13_2229"><path fill="#fff" d="M0 0h51v51H0z"/></clipPath></defs></svg>