<svg width="58" height="58" fill="none" xmlns="http://www.w3.org/2000/svg"><path d="M55.281 22.656c0-1.45-.181-2.9-.544-4.35-.09-.362-.453-.634-.815-.725-.363 0-.725.272-.906.635-1.27 3.715-4.713 6.253-8.61 6.253-4.984 0-9.062-4.078-9.062-9.063 0-3.897 2.537-7.34 6.253-8.61.362-.09.634-.452.634-.905 0-.363-.272-.725-.725-.816a17.9 17.9 0 00-4.35-.544c-9.153 0-16.856 6.797-17.944 15.86-2.537 1.359-4.44 3.534-5.346 6.253-6.072-.816-11.147 3.897-11.147 9.697 0 5.437 4.44 9.878 9.878 9.878h5.619c-.091.272-.091.634-.091.906a6.305 6.305 0 006.344 6.344 6.305 6.305 0 006.343-6.344c0-.272 0-.634-.09-.906h7.16c4.44 0 8.065-3.444 8.337-7.885 5.618-3.172 9.062-9.153 9.062-15.678zm-30.812 29c-2.538 0-4.532-1.993-4.532-4.531 0-2.356 2.81-5.89 4.532-7.794C26.19 41.144 29 44.77 29 47.125a4.487 4.487 0 01-4.531 4.531zm13.412-7.25h-7.703c-1.36-3.262-4.622-6.525-5.075-6.978a.876.876 0 00-1.269 0c-.453.453-3.625 3.716-5.075 6.978h-6.253c-4.35 0-7.975-3.625-7.975-8.065 0-4.985 4.532-8.972 9.697-7.885.453.09.906-.181 1.088-.634.725-2.719 2.628-4.894 5.075-6.072 0 0 .09 0 .09-.09 1.269-.544 2.628-.907 3.988-.907a9.514 9.514 0 019.515 9.516c0 .544.363.906.907.906h2.99c3.625 0 6.525 2.9 6.525 6.525 0 3.716-2.9 6.706-6.525 6.706zm8.157-8.065c-.725-3.897-4.17-6.797-8.157-6.797h-2.084c-.453-5.89-5.347-10.513-11.328-10.513-1.088 0-2.266.181-3.353.544 1.45-7.703 8.156-13.231 16.04-13.231h1.178c-2.99 1.994-4.803 5.347-4.803 9.062 0 5.981 4.894 10.875 10.875 10.875 3.716 0 7.069-1.812 9.063-4.803v1.178c0 5.528-2.81 10.694-7.431 13.685z" fill="#FE4646"/></svg>